<?xml version="1.0" encoding="UTF-8" standalone="no"?>
<svg
   xmlns:dc="http://purl.org/dc/elements/1.1/"
   xmlns:cc="http://creativecommons.org/ns#"
   xmlns:rdf="http://www.w3.org/1999/02/22-rdf-syntax-ns#"
   xmlns:svg="http://www.w3.org/2000/svg"
   xmlns="http://www.w3.org/2000/svg"
   xmlns:sodipodi="http://sodipodi.sourceforge.net/DTD/sodipodi-0.dtd"
   xmlns:inkscape="http://www.inkscape.org/namespaces/inkscape"
   width="118.31216mm"
   height="13.48842mm"
   viewBox="0 0 118.31217 13.488421"
   version="1.1"
   id="svg5"
   inkscape:version="1.0.2 (e86c870879, 2021-01-15, custom)"
   sodipodi:docname="sequence_5pdeer_forward.svg">
  <metadata
     id="metadata58">
    <rdf:RDF>
      <cc:Work
         rdf:about="">
        <dc:format>image/svg+xml</dc:format>
        <dc:type
           rdf:resource="http://purl.org/dc/dcmitype/StillImage" />
        <dc:title></dc:title>
      </cc:Work>
    </rdf:RDF>
  </metadata>
  <sodipodi:namedview
     id="namedview7"
     pagecolor="#ffffff"
     bordercolor="#999999"
     borderopacity="1"
     inkscape:pageshadow="0"
     inkscape:pageopacity="0"
     inkscape:pagecheckerboard="0"
     inkscape:document-units="mm"
     showgrid="false"
     inkscape:zoom="1.4467452"
     inkscape:cx="208.15151"
     inkscape:cy="-1.6784711"
     inkscape:window-width="2560"
     inkscape:window-height="1377"
     inkscape:window-x="1912"
     inkscape:window-y="-8"
     inkscape:window-maximized="1"
     inkscape:current-layer="layer1"
     inkscape:document-rotation="0" />
  <defs
     id="defs2" />
  <g
     inkscape:label="Layer 1"
     inkscape:groupmode="layer"
     id="layer1"
     transform="translate(-11.192338,-147.27227)">
    <text
       xml:space="preserve"
       style="font-style:normal;font-weight:normal;font-size:7.12244px;line-height:1.25;font-family:sans-serif;fill:#000000;fill-opacity:1;stroke:none;stroke-width:0.178061"
       x="107.41135"
       y="155.15381"
       id="text2722-0-1-2-1-7"><tspan
         sodipodi:role="line"
         id="tspan2720-5-9-6-8-6"
         style="font-style:italic;font-variant:normal;font-weight:normal;font-stretch:normal;font-family:Cambria;-inkscape-font-specification:Cambria;stroke-width:0.178061"
         x="107.41135"
         y="155.15381">τ<tspan
   style="font-style:normal;font-size:65%;baseline-shift:sub"
   id="tspan12985-9-1-2">2</tspan></tspan></text>
    <rect
       style="fill:#7d84d8;fill-opacity:1;stroke:#000000;stroke-width:0.165;stroke-linecap:round;stroke-linejoin:round;stroke-miterlimit:3.9;stroke-dasharray:none;stroke-opacity:1"
       id="rect881-7-0"
       width="6.0350986"
       height="13.167488"
       x="34.292072"
       y="147.43274"
       ry="0.26846477"
       rx="0.26846477" />
    <rect
       style="fill:#4550e6;fill-opacity:1;stroke:#000000;stroke-width:0.165;stroke-linecap:round;stroke-linejoin:round;stroke-miterlimit:3.9;stroke-dasharray:none;stroke-opacity:1"
       id="rect881-7-7-3"
       width="6.0350986"
       height="13.167488"
       x="50.376915"
       y="147.43274"
       ry="0.26846477"
       rx="0.26846477" />
    <rect
       style="fill:#4550e6;stroke:#000000;stroke-width:0.127885;stroke-linecap:round;stroke-linejoin:round;stroke-miterlimit:3.9;stroke-dasharray:none;stroke-opacity:1"
       id="rect881-92-2-8"
       width="3.6151919"
       height="13.204603"
       x="12.403068"
       y="147.41418"
       ry="0.26922148"
       rx="0.26922148" />
    <rect
       style="fill:#7d84d8;fill-opacity:1;stroke:#000000;stroke-width:0.165;stroke-linecap:round;stroke-linejoin:round;stroke-miterlimit:3.9;stroke-dasharray:none;stroke-opacity:1"
       id="rect881-9-0-7"
       width="6.0350986"
       height="13.167488"
       x="63.389168"
       y="147.43274"
       ry="0.26846477"
       rx="0.26846477" />
    <rect
       style="fill:#4550e6;fill-opacity:1;stroke:#000000;stroke-width:0.165;stroke-linecap:round;stroke-linejoin:round;stroke-miterlimit:3.9;stroke-dasharray:none;stroke-opacity:1"
       id="rect881-9-0-7-6"
       width="6.0350986"
       height="13.167488"
       x="99.275307"
       y="147.43274"
       ry="0.26846477"
       rx="0.26846477" />
    <text
       xml:space="preserve"
       style="font-style:normal;font-weight:normal;font-size:7.12244px;line-height:1.25;font-family:sans-serif;fill:#000000;fill-opacity:1;stroke:none;stroke-width:0.178061"
       x="71.525215"
       y="155.46945"
       id="text2722-4-3-7"><tspan
         sodipodi:role="line"
         id="tspan2720-2-8-6"
         style="font-style:italic;font-variant:normal;font-weight:normal;font-stretch:normal;font-family:Cambria;-inkscape-font-specification:Cambria;stroke-width:0.178061"
         x="71.525215"
         y="155.46945">τ<tspan
   style="font-style:normal;font-size:65%;baseline-shift:sub"
   id="tspan15048-2">1</tspan> + τ<tspan
   style="font-style:normal;font-size:65%;baseline-shift:sub"
   id="tspan14122-4">2</tspan> -t</tspan></text>
    <text
       xml:space="preserve"
       style="font-style:normal;font-weight:normal;font-size:7.12244px;line-height:1.25;font-family:sans-serif;fill:#000000;fill-opacity:1;stroke:none;stroke-width:0.178061"
       x="58.32169"
       y="156.08054"
       id="text2722-8-1-6"><tspan
         sodipodi:role="line"
         id="tspan2720-6-2-0"
         style="font-style:italic;font-variant:normal;font-weight:normal;font-stretch:normal;font-family:Cambria;-inkscape-font-specification:Cambria;stroke-width:0.178061"
         x="58.32169"
         y="156.08054">t</tspan></text>
    <text
       xml:space="preserve"
       style="font-style:normal;font-weight:normal;font-size:7.12244px;line-height:1.25;font-family:sans-serif;fill:#000000;fill-opacity:1;stroke:none;stroke-width:0.178061"
       x="42.42812"
       y="154.67419"
       id="text2722-0-1-2-1"><tspan
         sodipodi:role="line"
         id="tspan2720-5-9-6-8"
         style="font-style:italic;font-variant:normal;font-weight:normal;font-stretch:normal;font-family:Cambria;-inkscape-font-specification:Cambria;stroke-width:0.178061"
         x="42.42812"
         y="154.67419">τ<tspan
   style="font-style:normal;font-size:65%;baseline-shift:sub"
   id="tspan12985-9-1">3</tspan></tspan></text>
    <path
       d="m 113.79018,160.62155 c 0.025,0 0.0521,0 0.0786,0 0.0254,0 0.0521,0 0.0791,0 0.025,0 0.0521,0 0.0786,0 0.0254,0 0.0524,0 0.0791,0 0.0254,0 0.0521,0 0.0791,0 0.025,0 0.0521,0 0.0786,0 0.0254,0 0.0521,0 0.0791,0 0.0267,0 0.0521,0 0.0786,0 0.0271,0 0.0521,0 0.0791,0 0.0267,0 0.052,0 0.0791,0 0.0267,0 0.052,0 0.0786,0 0.0271,0 0.0521,0 0.0791,0 0.0267,0 0.0521,0 0.0786,0 0.027,0 0.052,0 0.0791,0 0.0267,0 0.0521,-0.001 0.0791,-0.001 0.0267,0 0.0521,0 0.0788,0 0.0271,0 0.0521,0 0.0791,0 0.0267,0 0.0521,0 0.0786,0 0.0271,0 0.0521,0 0.0791,0 0.0267,0 0.0521,0 0.0791,0 0.0267,-0.001 0.0521,-0.001 0.0786,-0.001 0.0271,0 0.0538,0 0.0791,0 0.0267,-0.001 0.0521,-0.001 0.0786,-0.001 0.0271,0 0.0538,0 0.0791,-0.001 0.0267,0 0.0538,0 0.0786,0 0.0271,-0.001 0.0538,-0.001 0.0791,-0.001 0.0271,-10e-4 0.0538,-10e-4 0.0791,-0.004 0.0267,0 0.0538,0 0.0786,-0.001 0.0271,0 0.0538,-0.001 0.0791,-0.004 0.0267,0 0.0538,-0.001 0.0786,-0.003 0.0271,0 0.0538,-10e-4 0.0791,-0.004 0.0271,-0.001 0.0538,-0.004 0.0791,-0.006 0.0267,0 0.0538,-0.004 0.0786,-0.006 0.0271,-0.001 0.0538,-0.003 0.0791,-0.007 0.0267,-0.001 0.0538,-0.004 0.0786,-0.009 0.0271,-0.004 0.0538,-0.006 0.0808,-0.0104 0.0254,-0.004 0.0521,-0.0104 0.0791,-0.0119 0.025,-0.006 0.0521,-0.0104 0.0787,-0.0149 0.0254,-0.006 0.052,-0.0119 0.0791,-0.0183 0.025,-0.004 0.0521,-0.0104 0.0786,-0.0189 0.0254,-0.006 0.0521,-0.0149 0.0791,-0.0205 0.0249,-0.007 0.0521,-0.0162 0.0787,-0.0262 0.0254,-0.009 0.0524,-0.0168 0.0791,-0.0268 0.0254,-0.0104 0.0521,-0.0226 0.0791,-0.033 0.025,-0.0119 0.0521,-0.0247 0.0786,-0.0367 0.0254,-0.0119 0.0521,-0.0268 0.0791,-0.0409 0.025,-0.0149 0.0521,-0.0309 0.0786,-0.0473 0.0254,-0.0162 0.0524,-0.0326 0.0791,-0.0515 0.0254,-0.0183 0.0521,-0.0388 0.0791,-0.0593 0.025,-0.0205 0.0521,-0.043 0.0786,-0.0656 0.0271,-0.0226 0.0521,-0.0473 0.0791,-0.0739 0.0267,-0.0241 0.052,-0.0509 0.0787,-0.0797 0.0271,-0.0289 0.0524,-0.0593 0.0791,-0.0903 0.0271,-0.0305 0.0521,-0.0635 0.0791,-0.0982 0.0267,-0.0351 0.052,-0.0718 0.0786,-0.11066 0.0271,-0.0367 0.052,-0.0782 0.0791,-0.11914 0.0267,-0.0409 0.052,-0.0861 0.0786,-0.13118 0.0271,-0.0451 0.052,-0.0924 0.0791,-0.14116 0.0267,-0.0494 0.0521,-0.10292 0.0791,-0.15584 0.0267,-0.0536 0.0521,-0.10858 0.0786,-0.16791 0.0271,-0.0577 0.0521,-0.11914 0.0791,-0.1805 0.0267,-0.0635 0.0521,-0.1291 0.0787,-0.19466 0.0271,-0.0677 0.0521,-0.13744 0.0791,-0.20937 0.0267,-0.0735 0.0521,-0.14739 0.0791,-0.22509 0.0267,-0.0762 0.0538,-0.15585 0.0786,-0.23822 0.027,-0.0818 0.0538,-0.16581 0.0791,-0.25397 0.0267,-0.0861 0.0538,-0.1763 0.0786,-0.26655 0.0271,-0.0924 0.0538,-0.18627 0.0791,-0.28283 0.0267,-0.0959 0.0538,-0.19676 0.0791,-0.29698 0.0267,-0.10278 0.0538,-0.20516 0.0786,-0.31168 0.0271,-0.1065 0.0538,-0.21513 0.0791,-0.32374 0.0267,-0.11066 0.0538,-0.22354 0.0787,-0.33844 0.0271,-0.11438 0.0538,-0.23141 0.0791,-0.35051 0.0267,-0.11647 0.0538,-0.2377 0.0787,-0.35839 0.0271,-0.1233 0.0538,-0.24608 0.0791,-0.37096 0.0271,-0.12539 0.0538,-0.2503 0.0791,-0.37728 0.0267,-0.12702 0.0538,-0.25605 0.0786,-0.38514 0.0271,-0.1291 0.0538,-0.26024 0.0791,-0.39143 0.0267,-0.13118 0.0538,-0.26236 0.0805,-0.39353 0.0254,-0.13327 0.0521,-0.26445 0.0791,-0.39564 0.0254,-0.13327 0.0521,-0.26445 0.0791,-0.39563 0.025,-0.13326 0.0521,-0.26445 0.0786,-0.39353 0.0254,-0.13118 0.0521,-0.26026 0.0791,-0.38935 0.025,-0.12746 0.052,-0.25447 0.0786,-0.38145 0.0254,-0.12494 0.0521,-0.25029 0.0791,-0.37098 0.0254,-0.12271 0.052,-0.24399 0.0791,-0.361 0.025,-0.11854 0.0521,-0.2335 0.0786,-0.3484 0.0254,-0.1123 0.052,-0.223 0.0791,-0.33005 0.025,-0.1065 0.0521,-0.21094 0.0788,-0.31116 0.0254,-0.10278 0.052,-0.19886 0.0791,-0.29331 0.0249,-0.0924 0.0521,-0.1826 0.0786,-0.26865 0.0254,-0.0861 0.0524,-0.16791 0.0791,-0.24347 0.0254,-0.0782 0.0521,-0.15007 0.0791,-0.21932 0.0267,-0.0677 0.0521,-0.13119 0.0786,-0.1889 0.027,-0.0594 0.0521,-0.11289 0.0791,-0.16162 0.0267,-0.0473 0.0521,-0.0924 0.0786,-0.1291 0.0271,-0.0394 0.0524,-0.0718 0.0791,-0.0986 0.0271,-0.0289 0.0521,-0.0494 0.0791,-0.0656 0.0267,-0.0183 0.0521,-0.0289 0.0788,-0.0346 0.0271,-0.004 0.0521,-0.004 0.0791,0 0.0267,0.006 0.0521,0.0162 0.0786,0.0346 0.0271,0.0162 0.0524,0.0367 0.0791,0.0656 0.027,0.0268 0.0521,0.0593 0.0791,0.0986 0.0267,0.0367 0.052,0.0818 0.0786,0.1291 0.0271,0.0488 0.0521,0.10233 0.0791,0.16162 0.0267,0.0577 0.052,0.12122 0.0786,0.1889 0.0271,0.0693 0.052,0.14115 0.0791,0.21932 0.0267,0.0756 0.0538,0.15741 0.0791,0.24347 0.0267,0.0861 0.0538,0.1763 0.0788,0.26865 0.0271,0.0944 0.052,0.19048 0.0791,0.29331 0.0267,0.10025 0.0538,0.20464 0.0786,0.31116 0.0271,0.10709 0.0538,0.21775 0.0791,0.33005 0.0267,0.11497 0.0538,0.22981 0.0791,0.3484 0.0267,0.11706 0.0538,0.23822 0.0786,0.361 0.0271,0.12063 0.0538,0.24609 0.0791,0.37098 0.0267,0.12702 0.0538,0.25396 0.0786,0.38145 0.0271,0.12911 0.0538,0.25817 0.0791,0.38935 0.0267,0.12911 0.0538,0.26025 0.0791,0.39353 0.0267,0.13119 0.0538,0.26236 0.0787,0.39563 0.0271,0.13119 0.0538,0.26236 0.0791,0.39564 0.0267,0.13119 0.0538,0.26236 0.0786,0.39353 0.0271,0.13119 0.0538,0.26236 0.0808,0.39143 0.025,0.12911 0.0521,0.25817 0.0786,0.38514 0.0254,0.12703 0.0521,0.25188 0.0791,0.37728 0.0254,0.12494 0.0521,0.24766 0.0791,0.37096 0.025,0.12063 0.0521,0.24189 0.0786,0.36048 0.0254,0.11706 0.0521,0.23403 0.0791,0.34842 0.025,0.11497 0.0521,0.22772 0.0786,0.33844 0.0254,0.10858 0.0521,0.21723 0.0791,0.32374 0.0254,0.10649 0.052,0.20884 0.0791,0.31168 0.025,0.10025 0.0521,0.20097 0.0786,0.29698 0.0254,0.0965 0.052,0.19048 0.0791,0.28283 0.025,0.0903 0.0521,0.1805 0.0786,0.26655 0.0254,0.0882 0.052,0.1721 0.0791,0.25397 0.0254,0.0824 0.0521,0.16214 0.0791,0.23822 0.025,0.0776 0.0521,0.15163 0.0787,0.22509 0.0271,0.0718 0.0521,0.1416 0.0791,0.20937 0.025,0.0677 0.0521,0.13118 0.0786,0.19466 0.0254,0.0614 0.0521,0.12271 0.0791,0.1805 0.0267,0.0593 0.0521,0.11438 0.0786,0.16791 0.0271,0.0529 0.0524,0.10649 0.0791,0.15584 0.0271,0.0488 0.0521,0.0961 0.0791,0.14116 0.0267,0.0473 0.0521,0.0903 0.0786,0.13118 0.027,0.0409 0.0521,0.0824 0.0791,0.11914 0.0267,0.0388 0.0521,0.0756 0.0786,0.11066 0.0271,0.0347 0.0524,0.0677 0.0791,0.0982 0.0271,0.0309 0.0521,0.0614 0.0791,0.0903 0.0267,0.0289 0.052,0.0556 0.0786,0.0797 0.0271,0.0268 0.052,0.0515 0.0791,0.0739 0.0267,0.0226 0.0521,0.0451 0.0786,0.0656 0.0271,0.0205 0.0538,0.0409 0.0791,0.0593 0.0271,0.0189 0.0538,0.0351 0.0791,0.0515 0.0267,0.0162 0.0538,0.033 0.0786,0.0473 0.0271,0.0149 0.0538,0.0289 0.0791,0.0409 0.0267,0.0119 0.0538,0.0247 0.0786,0.0367 0.0271,0.0104 0.0538,0.0226 0.0791,0.033 0.0267,0.0104 0.0538,0.0183 0.0791,0.0288 0.0267,0.007 0.0538,0.0162 0.0786,0.0241 0.0271,0.006 0.0538,0.0149 0.0791,0.0205 0.0267,0.006 0.0538,0.0149 0.0786,0.021 0.0271,0.003 0.0537,0.0104 0.0791,0.0162 0.0267,0.004 0.0538,0.007 0.0791,0.0149 0.0267,0.004 0.0538,0.009 0.0786,0.0119 0.027,0.001 0.0538,0.006 0.0791,0.0104 0.0267,0.004 0.0538,0.006 0.0805,0.009 0.0254,0.004 0.0521,0.006 0.0791,0.007 0.025,0.004 0.0521,0.006 0.0786,0.006 0.0254,0.001 0.0524,0.004 0.0791,0.006 0.0254,0.001 0.0521,0.004 0.0791,0.004 0.025,10e-4 0.052,0.003 0.0786,0.003 0.0254,0.001 0.052,0.004 0.0791,0.004 0.0249,0 0.0521,0.001 0.0787,0.001 0.0254,0.001 0.0521,0.001 0.0791,0.004 0.0254,0 0.052,0.001 0.0791,0.001 0.025,0 0.0521,0 0.0786,0 0.0254,0.001 0.052,0.001 0.0791,0.001 0.0249,0 0.0521,0.001 0.0786,0.001 0.0254,0 0.0521,0 0.0791,0 0.0254,0 0.0521,0 0.0791,0.001 0.025,0 0.0521,0 0.0786,0 0.0254,0 0.0521,0 0.0791,0 0.025,0 0.0521,0 0.0787,0 0.0271,0 0.0521,0 0.0791,0 0.0267,0 0.0521,0 0.0791,0 0.0267,0 0.0521,0.001 0.0786,0.001 0.0271,0 0.0521,0 0.0791,0 0.0267,0 0.0521,0 0.0786,0 0.0271,0 0.0521,0 0.0791,0 0.0267,0 0.052,0 0.0786,0 0.0271,0 0.0524,0 0.0791,0 0.0271,0 0.052,0 0.0791,0 0.0267,0 0.0521,0 0.0787,0 0.0271,0 0.052,0 0.0791,0 0.0267,0 0.0538,0 0.0787,0 0.0271,0 0.0538,0 0.0791,0 0.0271,0 0.052,0 0.0791,0 0.0267,0 0.0538,0 0.0786,0 0.0271,0 0.0538,0 0.0791,0 0.0267,0 0.0538,0 0.0786,0"
       style="fill:#c6c6c6;fill-opacity:1;fill-rule:nonzero;stroke:none;stroke-width:0.505982"
       id="path6699-8-9" />
    <path
       style="fill:none;stroke:#000000;stroke-width:0.278474px;stroke-linecap:butt;stroke-linejoin:miter;stroke-opacity:1"
       d="M 11.192338,160.62145 H 129.5045"
       id="path857-8-4" />
    <text
       xml:space="preserve"
       style="font-style:normal;font-weight:normal;font-size:7.12244px;line-height:1.25;font-family:sans-serif;fill:#000000;fill-opacity:1;stroke:none;stroke-width:0.178061"
       x="18.100653"
       y="154.94852"
       id="text2722-0-1-2-8"><tspan
         sodipodi:role="line"
         id="tspan2720-5-9-6-2"
         style="font-style:italic;font-variant:normal;font-weight:normal;font-stretch:normal;font-family:Cambria;-inkscape-font-specification:Cambria;stroke-width:0.178061"
         x="18.100653"
         y="154.94852">τ<tspan
   style="font-style:normal;font-size:65%;baseline-shift:sub"
   id="tspan920">1</tspan>-τ<tspan
   style="font-style:normal;font-size:65%;baseline-shift:sub"
   id="tspan924">3</tspan></tspan></text>
  </g>
</svg>
