<?xml version="1.0" encoding="UTF-8" standalone="no"?>
<!-- Created with Inkscape (http://www.inkscape.org/) -->

<svg
   width="118.31216mm"
   height="13.38575mm"
   viewBox="0 0 118.31216 13.385751"
   version="1.1"
   id="svg5"
   inkscape:version="1.1 (c68e22c387, 2021-05-23)"
   sodipodi:docname="sequence_3pdeer.svg"
   xmlns:inkscape="http://www.inkscape.org/namespaces/inkscape"
   xmlns:sodipodi="http://sodipodi.sourceforge.net/DTD/sodipodi-0.dtd"
   xmlns="http://www.w3.org/2000/svg"
   xmlns:svg="http://www.w3.org/2000/svg">
  <sodipodi:namedview
     id="namedview7"
     pagecolor="#ffffff"
     bordercolor="#999999"
     borderopacity="1"
     inkscape:pageshadow="0"
     inkscape:pageopacity="0"
     inkscape:pagecheckerboard="0"
     inkscape:document-units="mm"
     showgrid="false"
     inkscape:zoom="2.0460067"
     inkscape:cx="211.63176"
     inkscape:cy="124.38864"
     inkscape:window-width="1920"
     inkscape:window-height="1001"
     inkscape:window-x="-9"
     inkscape:window-y="-9"
     inkscape:window-maximized="1"
     inkscape:current-layer="layer1" />
  <defs
     id="defs2" />
  <g
     inkscape:label="Layer 1"
     inkscape:groupmode="layer"
     id="layer1"
     transform="translate(-10.253723,-106.72393)">
    <rect
       style="fill:#4550e6;stroke:#000000;stroke-width:0.165;stroke-linecap:round;stroke-linejoin:round;stroke-miterlimit:3.9;stroke-dasharray:none;stroke-opacity:1"
       id="rect881"
       width="6.0350986"
       height="13.167488"
       x="40.980671"
       y="106.80643"
       ry="0.26846477" />
    <rect
       style="fill:#4550e6;stroke:#000000;stroke-width:0.127885;stroke-linecap:round;stroke-linejoin:round;stroke-miterlimit:3.9;stroke-dasharray:none;stroke-opacity:1"
       id="rect881-92"
       width="3.6151919"
       height="13.204603"
       x="13.58112"
       y="106.80867"
       ry="0.26922148" />
    <rect
       style="fill:#4550e6;stroke:#000000;stroke-width:0.165;stroke-linecap:round;stroke-linejoin:round;stroke-miterlimit:3.9;stroke-dasharray:none;stroke-opacity:1"
       id="rect881-9"
       width="6.0350986"
       height="13.167488"
       x="61.964321"
       y="106.80643"
       ry="0.26846477" />
    <text
       xml:space="preserve"
       style="font-style:normal;font-weight:normal;font-size:7.12244px;line-height:1.25;font-family:sans-serif;fill:#000000;fill-opacity:1;stroke:none;stroke-width:0.178061"
       x="24.983532"
       y="115.45422"
       id="text2722"><tspan
         sodipodi:role="line"
         id="tspan2720"
         style="font-style:italic;font-variant:normal;font-weight:normal;font-stretch:normal;font-family:Cambria;-inkscape-font-specification:Cambria;stroke-width:0.178061"
         x="24.983532"
         y="115.45422">τ-t</tspan></text>
    <text
       xml:space="preserve"
       style="font-style:normal;font-weight:normal;font-size:7.12244px;line-height:1.25;font-family:sans-serif;fill:#000000;fill-opacity:1;stroke:none;stroke-width:0.178061"
       x="53.198059"
       y="115.45422"
       id="text2722-8"><tspan
         sodipodi:role="line"
         id="tspan2720-6"
         style="font-style:italic;font-variant:normal;font-weight:normal;font-stretch:normal;font-family:Cambria;-inkscape-font-specification:Cambria;stroke-width:0.178061"
         x="53.198059"
         y="115.45422">t</tspan></text>
    <text
       xml:space="preserve"
       style="font-style:normal;font-weight:normal;font-size:7.12244px;line-height:1.25;font-family:sans-serif;fill:#000000;fill-opacity:1;stroke:none;stroke-width:0.178061"
       x="91.673721"
       y="115.02819"
       id="text2722-0"><tspan
         sodipodi:role="line"
         id="tspan2720-5"
         style="font-style:italic;font-variant:normal;font-weight:normal;font-stretch:normal;font-family:Cambria;-inkscape-font-specification:Cambria;stroke-width:0.178061"
         x="91.673721"
         y="115.02819">τ</tspan></text>
    <path
       d="m 105.65952,119.80608 c 0.0284,0 0.0591,0 0.0892,0 0.0288,0 0.0591,0 0.0898,0 0.0284,0 0.0591,0 0.0892,0 0.0288,0 0.0595,0 0.0898,0 0.0288,0 0.0591,0 0.0898,0 0.0284,0 0.0591,0 0.0892,0 0.0288,0 0.0591,0 0.0898,0 0.0303,0 0.0591,0 0.0892,0 0.0307,0 0.0591,0 0.0898,0 0.0303,0 0.059,0 0.0898,0 0.0303,0 0.059,0 0.0892,0 0.0307,0 0.0591,0 0.0898,0 0.0303,0 0.0591,0 0.0892,0 0.0307,0 0.059,0 0.0898,0 0.0303,0 0.0591,-10e-4 0.0898,-10e-4 0.0303,0 0.0591,0 0.0894,0 0.0307,0 0.0591,0 0.0898,0 0.0303,0 0.0591,0 0.0892,0 0.0307,0 0.0591,0 0.0898,0 0.0303,0 0.0591,0 0.0898,0 0.0303,-0.001 0.0591,-0.001 0.0892,-0.001 0.0307,0 0.061,0 0.0898,0 0.0303,-0.001 0.0591,-0.001 0.0892,-0.001 0.0307,0 0.061,0 0.0898,-10e-4 0.0303,0 0.061,0 0.0892,0 0.0307,-0.001 0.061,-0.001 0.0898,-0.001 0.0307,-0.001 0.061,-0.001 0.0898,-0.004 0.0303,0 0.061,0 0.0892,-10e-4 0.0307,0 0.061,-0.001 0.0898,-0.004 0.0303,0 0.061,-0.001 0.0892,-0.003 0.0307,0 0.061,-0.001 0.0898,-0.004 0.0307,-10e-4 0.061,-0.004 0.0898,-0.006 0.0303,0 0.061,-0.004 0.0892,-0.006 0.0307,-10e-4 0.061,-0.003 0.0898,-0.007 0.0303,-0.001 0.061,-0.004 0.0892,-0.009 0.0307,-0.004 0.061,-0.006 0.0917,-0.0104 0.0288,-0.004 0.0591,-0.0104 0.0898,-0.0119 0.0284,-0.006 0.0591,-0.0104 0.0893,-0.0149 0.0288,-0.006 0.059,-0.0119 0.0898,-0.0183 0.0284,-0.004 0.0591,-0.0104 0.0892,-0.0189 0.0288,-0.006 0.0591,-0.0149 0.0898,-0.0205 0.0283,-0.007 0.0591,-0.0162 0.0893,-0.0262 0.0288,-0.009 0.0595,-0.0168 0.0898,-0.0268 0.0288,-0.0104 0.0591,-0.0226 0.0898,-0.033 0.0284,-0.0119 0.0591,-0.0247 0.0892,-0.0367 0.0288,-0.0119 0.0591,-0.0268 0.0898,-0.0409 0.0284,-0.0149 0.0591,-0.0309 0.0892,-0.0473 0.0288,-0.0162 0.0595,-0.0326 0.0898,-0.0515 0.0288,-0.0183 0.0591,-0.0388 0.0898,-0.0593 0.0284,-0.0205 0.0591,-0.043 0.0892,-0.0656 0.0307,-0.0226 0.0591,-0.0473 0.0898,-0.0739 0.0303,-0.0241 0.059,-0.0509 0.0893,-0.0797 0.0307,-0.0289 0.0595,-0.0593 0.0898,-0.0903 0.0307,-0.0305 0.0591,-0.0635 0.0898,-0.0982 0.0303,-0.0351 0.059,-0.0718 0.0892,-0.11066 0.0307,-0.0367 0.059,-0.0782 0.0898,-0.11914 0.0303,-0.0409 0.059,-0.0861 0.0892,-0.13118 0.0307,-0.0451 0.059,-0.0924 0.0898,-0.14116 0.0303,-0.0494 0.0591,-0.10292 0.0898,-0.15584 0.0303,-0.0536 0.0591,-0.10858 0.0892,-0.16791 0.0307,-0.0577 0.0591,-0.11914 0.0898,-0.1805 0.0303,-0.0635 0.0591,-0.1291 0.0893,-0.19466 0.0307,-0.0677 0.0591,-0.13744 0.0898,-0.20937 0.0303,-0.0735 0.0591,-0.14739 0.0898,-0.22509 0.0303,-0.0762 0.061,-0.15585 0.0892,-0.23822 0.0307,-0.0818 0.061,-0.16581 0.0898,-0.25397 0.0303,-0.0861 0.061,-0.1763 0.0892,-0.26655 0.0307,-0.0924 0.061,-0.18627 0.0898,-0.28283 0.0303,-0.0959 0.061,-0.19676 0.0898,-0.29698 0.0303,-0.10278 0.061,-0.20516 0.0892,-0.31168 0.0307,-0.1065 0.061,-0.21513 0.0898,-0.32374 0.0303,-0.11066 0.061,-0.22354 0.0893,-0.33844 0.0307,-0.11438 0.061,-0.23141 0.0898,-0.35051 0.0303,-0.11647 0.061,-0.2377 0.0893,-0.35839 0.0307,-0.1233 0.061,-0.24608 0.0898,-0.37096 0.0307,-0.12539 0.061,-0.2503 0.0898,-0.37728 0.0303,-0.12702 0.061,-0.25605 0.0892,-0.38514 0.0307,-0.1291 0.061,-0.26024 0.0898,-0.39143 0.0303,-0.13118 0.061,-0.26236 0.0913,-0.39353 0.0288,-0.13327 0.0591,-0.26445 0.0898,-0.39564 0.0288,-0.13327 0.0591,-0.26445 0.0898,-0.39563 0.0284,-0.13326 0.0591,-0.26445 0.0892,-0.39353 0.0288,-0.13118 0.0591,-0.26026 0.0898,-0.38935 0.0284,-0.12746 0.059,-0.25447 0.0892,-0.38145 0.0288,-0.12494 0.0591,-0.25029 0.0898,-0.37098 0.0288,-0.12271 0.059,-0.24399 0.0898,-0.361 0.0284,-0.11854 0.0591,-0.2335 0.0892,-0.3484 0.0288,-0.1123 0.059,-0.223 0.0898,-0.33005 0.0284,-0.1065 0.0591,-0.21094 0.0894,-0.31116 0.0288,-0.10278 0.059,-0.19886 0.0898,-0.29331 0.0283,-0.0924 0.0591,-0.1826 0.0892,-0.26865 0.0288,-0.0861 0.0595,-0.16791 0.0898,-0.24347 0.0288,-0.0782 0.0591,-0.15007 0.0898,-0.21932 0.0303,-0.0677 0.0591,-0.13119 0.0892,-0.1889 0.0307,-0.0594 0.0591,-0.11289 0.0898,-0.16162 0.0303,-0.0473 0.0591,-0.0924 0.0892,-0.1291 0.0307,-0.0394 0.0595,-0.0718 0.0898,-0.0986 0.0307,-0.0289 0.0591,-0.0494 0.0898,-0.0656 0.0303,-0.0183 0.0591,-0.0289 0.0894,-0.0346 0.0307,-0.004 0.0591,-0.004 0.0898,0 0.0303,0.006 0.0591,0.0162 0.0892,0.0346 0.0307,0.0162 0.0595,0.0367 0.0898,0.0656 0.0307,0.0268 0.0591,0.0593 0.0898,0.0986 0.0303,0.0367 0.059,0.0818 0.0892,0.1291 0.0307,0.0488 0.0591,0.10233 0.0898,0.16162 0.0303,0.0577 0.059,0.12122 0.0892,0.1889 0.0307,0.0693 0.059,0.14115 0.0898,0.21932 0.0303,0.0756 0.061,0.15741 0.0898,0.24347 0.0303,0.0861 0.061,0.1763 0.0894,0.26865 0.0307,0.0944 0.059,0.19048 0.0898,0.29331 0.0303,0.10025 0.061,0.20464 0.0892,0.31116 0.0307,0.10709 0.061,0.21775 0.0898,0.33005 0.0303,0.11497 0.061,0.22981 0.0898,0.3484 0.0303,0.11706 0.061,0.23822 0.0892,0.361 0.0307,0.12063 0.061,0.24609 0.0898,0.37098 0.0303,0.12702 0.061,0.25396 0.0892,0.38145 0.0307,0.12911 0.061,0.25817 0.0898,0.38935 0.0303,0.12911 0.061,0.26025 0.0898,0.39353 0.0303,0.13119 0.061,0.26236 0.0893,0.39563 0.0307,0.13119 0.061,0.26236 0.0898,0.39564 0.0303,0.13119 0.061,0.26236 0.0892,0.39353 0.0307,0.13119 0.061,0.26236 0.0917,0.39143 0.0284,0.12911 0.0591,0.25817 0.0892,0.38514 0.0288,0.12703 0.0591,0.25188 0.0898,0.37728 0.0288,0.12494 0.0591,0.24766 0.0898,0.37096 0.0284,0.12063 0.0591,0.24189 0.0892,0.36048 0.0288,0.11706 0.0591,0.23403 0.0898,0.34842 0.0284,0.11497 0.0591,0.22772 0.0892,0.33844 0.0288,0.10858 0.0591,0.21723 0.0898,0.32374 0.0288,0.10649 0.059,0.20884 0.0898,0.31168 0.0284,0.10025 0.0591,0.20097 0.0892,0.29698 0.0288,0.0965 0.059,0.19048 0.0898,0.28283 0.0284,0.0903 0.0591,0.1805 0.0892,0.26655 0.0288,0.0882 0.059,0.1721 0.0898,0.25397 0.0288,0.0824 0.0591,0.16214 0.0898,0.23822 0.0284,0.0776 0.0591,0.15163 0.0893,0.22509 0.0307,0.0718 0.0591,0.1416 0.0898,0.20937 0.0284,0.0677 0.0591,0.13118 0.0892,0.19466 0.0288,0.0614 0.0591,0.12271 0.0898,0.1805 0.0303,0.0593 0.0591,0.11438 0.0892,0.16791 0.0307,0.0529 0.0595,0.10649 0.0898,0.15584 0.0307,0.0488 0.0591,0.0961 0.0898,0.14116 0.0303,0.0473 0.0591,0.0903 0.0892,0.13118 0.0307,0.0409 0.0591,0.0824 0.0898,0.11914 0.0303,0.0388 0.0591,0.0756 0.0892,0.11066 0.0307,0.0347 0.0595,0.0677 0.0898,0.0982 0.0307,0.0309 0.0591,0.0614 0.0898,0.0903 0.0303,0.0289 0.059,0.0556 0.0892,0.0797 0.0307,0.0268 0.059,0.0515 0.0898,0.0739 0.0303,0.0226 0.0591,0.0451 0.0892,0.0656 0.0307,0.0205 0.061,0.0409 0.0898,0.0593 0.0307,0.0189 0.061,0.0351 0.0898,0.0515 0.0303,0.0162 0.061,0.033 0.0892,0.0473 0.0307,0.0149 0.061,0.0289 0.0898,0.0409 0.0303,0.0119 0.061,0.0247 0.0892,0.0367 0.0307,0.0104 0.061,0.0226 0.0898,0.033 0.0303,0.0104 0.061,0.0183 0.0898,0.0288 0.0303,0.007 0.061,0.0162 0.0892,0.0241 0.0307,0.006 0.061,0.0149 0.0898,0.0205 0.0303,0.006 0.061,0.0149 0.0892,0.021 0.0307,0.003 0.061,0.0104 0.0898,0.0162 0.0303,0.004 0.061,0.007 0.0898,0.0149 0.0303,0.004 0.061,0.009 0.0892,0.0119 0.0307,0.001 0.061,0.006 0.0898,0.0104 0.0303,0.004 0.061,0.006 0.0913,0.009 0.0288,0.004 0.0591,0.006 0.0898,0.007 0.0284,0.004 0.0591,0.006 0.0892,0.006 0.0288,10e-4 0.0595,0.004 0.0898,0.006 0.0288,10e-4 0.0591,0.004 0.0898,0.004 0.0284,0.001 0.059,0.003 0.0892,0.003 0.0288,0.001 0.059,0.004 0.0898,0.004 0.0283,0 0.0591,0.001 0.0893,0.001 0.0288,10e-4 0.0591,10e-4 0.0898,0.004 0.0288,0 0.059,0.001 0.0898,0.001 0.0284,0 0.0591,0 0.0892,0 0.0288,0.001 0.059,0.001 0.0898,0.001 0.0283,0 0.0591,10e-4 0.0892,10e-4 0.0288,0 0.0591,0 0.0898,0 0.0288,0 0.0591,0 0.0898,0.001 0.0284,0 0.0591,0 0.0892,0 0.0288,0 0.0591,0 0.0898,0 0.0284,0 0.0591,0 0.0893,0 0.0307,0 0.0591,0 0.0898,0 0.0303,0 0.0591,0 0.0898,0 0.0303,0 0.0591,0.001 0.0892,0.001 0.0307,0 0.0591,0 0.0898,0 0.0303,0 0.0591,0 0.0892,0 0.0307,0 0.0591,0 0.0898,0 0.0303,0 0.059,0 0.0892,0 0.0307,0 0.0595,0 0.0898,0 0.0307,0 0.059,0 0.0898,0 0.0303,0 0.0591,0 0.0893,0 0.0307,0 0.059,0 0.0898,0 0.0303,0 0.061,0 0.0893,0 0.0307,0 0.061,0 0.0898,0 0.0307,0 0.059,0 0.0898,0 0.0303,0 0.061,0 0.0892,0 0.0307,0 0.061,0 0.0898,0 0.0303,0 0.061,0 0.0892,0"
       style="fill:#c6c6c6;fill-opacity:1;fill-rule:nonzero;stroke:none;stroke-width:0.505982"
       id="path6699" />
    <rect
       style="fill:#4550e6;stroke:#000000;stroke-width:0.165;stroke-linecap:round;stroke-linejoin:round;stroke-miterlimit:3.9;stroke-dasharray:none;stroke-opacity:1"
       id="rect881-7"
       width="6.0350986"
       height="13.167488"
       x="37.568531"
       y="128.91379"
       ry="0.26846477" />
    <rect
       style="fill:#4550e6;stroke:#000000;stroke-width:0.165;stroke-linecap:round;stroke-linejoin:round;stroke-miterlimit:3.9;stroke-dasharray:none;stroke-opacity:1"
       id="rect881-7-7"
       width="6.0350986"
       height="13.167488"
       x="52.139713"
       y="128.8111"
       ry="0.26846477" />
    <rect
       style="fill:#4550e6;stroke:#000000;stroke-width:0.127885;stroke-linecap:round;stroke-linejoin:round;stroke-miterlimit:3.9;stroke-dasharray:none;stroke-opacity:1"
       id="rect881-92-2"
       width="3.6151919"
       height="13.204603"
       x="13.873149"
       y="128.91603"
       ry="0.26922148" />
    <rect
       style="fill:#4550e6;stroke:#000000;stroke-width:0.165;stroke-linecap:round;stroke-linejoin:round;stroke-miterlimit:3.9;stroke-dasharray:none;stroke-opacity:1"
       id="rect881-9-0"
       width="6.0350986"
       height="13.167488"
       x="88.185539"
       y="128.91379"
       ry="0.26846477" />
    <text
       xml:space="preserve"
       style="font-style:normal;font-weight:normal;font-size:7.12244px;line-height:1.25;font-family:sans-serif;fill:#000000;fill-opacity:1;stroke:none;stroke-width:0.178061"
       x="25.340603"
       y="136.46846"
       id="text2722-4"><tspan
         sodipodi:role="line"
         id="tspan2720-2"
         style="font-style:italic;font-variant:normal;font-weight:normal;font-stretch:normal;font-family:Cambria;-inkscape-font-specification:Cambria;stroke-width:0.178061"
         x="25.340603"
         y="136.46846">τ<tspan
   style="font-style:italic;font-size:65%;baseline-shift:sub"
   id="tspan9329">1</tspan></tspan></text>
    <text
       xml:space="preserve"
       style="font-style:normal;font-weight:normal;font-size:7.12244px;line-height:1.25;font-family:sans-serif;fill:#000000;fill-opacity:1;stroke:none;stroke-width:0.178061"
       x="60.47316"
       y="136.89796"
       id="text2722-4-3"><tspan
         sodipodi:role="line"
         id="tspan2720-2-8"
         style="font-style:italic;font-variant:normal;font-weight:normal;font-stretch:normal;font-family:Cambria;-inkscape-font-specification:Cambria;stroke-width:0.178061"
         x="60.47316"
         y="136.89796">τ<tspan
   style="font-style:italic;font-size:65%;baseline-shift:sub"
   id="tspan15048">1</tspan> + τ<tspan
   style="font-style:italic;font-size:65%;baseline-shift:sub"
   id="tspan14122">2</tspan> -t</tspan></text>
    <text
       xml:space="preserve"
       style="font-style:normal;font-weight:normal;font-size:7.12244px;line-height:1.25;font-family:sans-serif;fill:#000000;fill-opacity:1;stroke:none;stroke-width:0.178061"
       x="46.292774"
       y="137.58238"
       id="text2722-8-1"><tspan
         sodipodi:role="line"
         id="tspan2720-6-2"
         style="font-style:italic;font-variant:normal;font-weight:normal;font-stretch:normal;font-family:Cambria;-inkscape-font-specification:Cambria;stroke-width:0.178061"
         x="46.292774"
         y="137.58238">t</tspan></text>
    <text
       xml:space="preserve"
       style="font-style:normal;font-weight:normal;font-size:7.12244px;line-height:1.25;font-family:sans-serif;fill:#000000;fill-opacity:1;stroke:none;stroke-width:0.178061"
       x="100.06594"
       y="136.46846"
       id="text2722-0-1"><tspan
         sodipodi:role="line"
         id="tspan2720-5-9"
         style="font-style:italic;font-variant:normal;font-weight:normal;font-stretch:normal;font-family:Cambria;-inkscape-font-specification:Cambria;stroke-width:0.178061"
         x="100.06594"
         y="136.46846">τ<tspan
   style="font-style:italic;font-size:65%;baseline-shift:sub"
   id="tspan12985">2</tspan></tspan></text>
    <path
       d="m 105.95155,141.91343 c 0.0284,0 0.0591,0 0.0892,0 0.0288,0 0.0591,0 0.0898,0 0.0284,0 0.0591,0 0.0892,0 0.0288,0 0.0595,0 0.0898,0 0.0288,0 0.0591,0 0.0898,0 0.0284,0 0.0591,0 0.0892,0 0.0288,0 0.0591,0 0.0898,0 0.0303,0 0.0591,0 0.0892,0 0.0307,0 0.0591,0 0.0898,0 0.0303,0 0.059,0 0.0898,0 0.0303,0 0.059,0 0.0892,0 0.0307,0 0.0591,0 0.0898,0 0.0303,0 0.0591,0 0.0892,0 0.0307,0 0.059,0 0.0898,0 0.0303,0 0.0591,-0.001 0.0898,-0.001 0.0303,0 0.0591,0 0.0894,0 0.0307,0 0.0591,0 0.0898,0 0.0303,0 0.0591,0 0.0892,0 0.0307,0 0.0591,0 0.0898,0 0.0303,0 0.0591,0 0.0898,0 0.0303,-0.001 0.0591,-0.001 0.0892,-0.001 0.0307,0 0.061,0 0.0898,0 0.0303,-0.001 0.0591,-0.001 0.0892,-0.001 0.0307,0 0.061,0 0.0898,-0.001 0.0303,0 0.061,0 0.0892,0 0.0307,-10e-4 0.061,-10e-4 0.0898,-10e-4 0.0307,-0.001 0.061,-0.001 0.0898,-0.004 0.0303,0 0.061,0 0.0892,-0.001 0.0307,0 0.061,-10e-4 0.0898,-0.004 0.0303,0 0.061,-0.001 0.0892,-0.003 0.0307,0 0.061,-0.001 0.0898,-0.004 0.0307,-10e-4 0.061,-0.004 0.0898,-0.006 0.0303,0 0.061,-0.004 0.0892,-0.006 0.0307,-10e-4 0.061,-0.003 0.0898,-0.007 0.0303,-0.001 0.061,-0.004 0.0892,-0.009 0.0307,-0.004 0.061,-0.006 0.0917,-0.0104 0.0288,-0.004 0.0591,-0.0104 0.0898,-0.0119 0.0284,-0.006 0.0591,-0.0104 0.0893,-0.0149 0.0288,-0.006 0.059,-0.0119 0.0898,-0.0183 0.0284,-0.004 0.0591,-0.0104 0.0892,-0.0189 0.0288,-0.006 0.0591,-0.0149 0.0898,-0.0205 0.0283,-0.007 0.0591,-0.0162 0.0893,-0.0262 0.0288,-0.009 0.0595,-0.0168 0.0898,-0.0268 0.0288,-0.0104 0.0591,-0.0226 0.0898,-0.033 0.0284,-0.0119 0.0591,-0.0247 0.0892,-0.0367 0.0288,-0.0119 0.0591,-0.0268 0.0898,-0.0409 0.0284,-0.0149 0.0591,-0.0309 0.0892,-0.0473 0.0288,-0.0162 0.0595,-0.0326 0.0898,-0.0515 0.0288,-0.0183 0.0591,-0.0388 0.0898,-0.0593 0.0284,-0.0205 0.0591,-0.043 0.0892,-0.0656 0.0307,-0.0226 0.0591,-0.0473 0.0898,-0.0739 0.0303,-0.0241 0.059,-0.0509 0.0893,-0.0797 0.0307,-0.0289 0.0595,-0.0593 0.0898,-0.0903 0.0307,-0.0305 0.0591,-0.0635 0.0898,-0.0982 0.0303,-0.0351 0.059,-0.0718 0.0892,-0.11066 0.0307,-0.0367 0.059,-0.0782 0.0898,-0.11914 0.0303,-0.0409 0.059,-0.0861 0.0892,-0.13118 0.0307,-0.0451 0.059,-0.0924 0.0898,-0.14116 0.0303,-0.0494 0.0591,-0.10292 0.0898,-0.15584 0.0303,-0.0536 0.0591,-0.10858 0.0892,-0.16791 0.0307,-0.0577 0.0591,-0.11914 0.0898,-0.1805 0.0303,-0.0635 0.0591,-0.1291 0.0893,-0.19466 0.0307,-0.0677 0.0591,-0.13744 0.0898,-0.20937 0.0303,-0.0735 0.0591,-0.14739 0.0898,-0.22509 0.0303,-0.0762 0.061,-0.15585 0.0892,-0.23822 0.0307,-0.0818 0.061,-0.16581 0.0898,-0.25397 0.0303,-0.0861 0.061,-0.1763 0.0892,-0.26655 0.0307,-0.0924 0.061,-0.18627 0.0898,-0.28283 0.0303,-0.0959 0.061,-0.19676 0.0898,-0.29698 0.0303,-0.10278 0.061,-0.20516 0.0892,-0.31168 0.0307,-0.1065 0.061,-0.21513 0.0898,-0.32374 0.0303,-0.11066 0.061,-0.22354 0.0893,-0.33844 0.0307,-0.11438 0.061,-0.23141 0.0898,-0.35051 0.0303,-0.11647 0.061,-0.2377 0.0893,-0.35839 0.0307,-0.1233 0.061,-0.24608 0.0898,-0.37096 0.0307,-0.12539 0.061,-0.2503 0.0898,-0.37728 0.0303,-0.12702 0.061,-0.25605 0.0892,-0.38514 0.0307,-0.1291 0.061,-0.26024 0.0898,-0.39143 0.0303,-0.13118 0.061,-0.26236 0.0913,-0.39353 0.0288,-0.13327 0.0591,-0.26445 0.0898,-0.39564 0.0288,-0.13327 0.0591,-0.26445 0.0898,-0.39563 0.0284,-0.13326 0.0591,-0.26445 0.0892,-0.39353 0.0288,-0.13118 0.0591,-0.26026 0.0898,-0.38935 0.0284,-0.12746 0.059,-0.25447 0.0892,-0.38145 0.0288,-0.12494 0.0591,-0.25029 0.0898,-0.37098 0.0288,-0.12271 0.059,-0.24399 0.0898,-0.361 0.0284,-0.11854 0.0591,-0.2335 0.0892,-0.3484 0.0288,-0.1123 0.059,-0.223 0.0898,-0.33005 0.0284,-0.1065 0.0591,-0.21094 0.0894,-0.31116 0.0288,-0.10278 0.059,-0.19886 0.0898,-0.29331 0.0283,-0.0924 0.0591,-0.1826 0.0892,-0.26865 0.0288,-0.0861 0.0595,-0.16791 0.0898,-0.24347 0.0288,-0.0782 0.0591,-0.15007 0.0898,-0.21932 0.0303,-0.0677 0.0591,-0.13119 0.0892,-0.1889 0.0307,-0.0594 0.0591,-0.11289 0.0898,-0.16162 0.0303,-0.0473 0.0591,-0.0924 0.0892,-0.1291 0.0307,-0.0394 0.0595,-0.0718 0.0898,-0.0986 0.0307,-0.0289 0.0591,-0.0494 0.0898,-0.0656 0.0303,-0.0183 0.0591,-0.0289 0.0894,-0.0346 0.0307,-0.004 0.0591,-0.004 0.0898,0 0.0303,0.006 0.0591,0.0162 0.0892,0.0346 0.0307,0.0162 0.0595,0.0367 0.0898,0.0656 0.0307,0.0268 0.0591,0.0593 0.0898,0.0986 0.0303,0.0367 0.059,0.0818 0.0892,0.1291 0.0307,0.0488 0.0591,0.10233 0.0898,0.16162 0.0303,0.0577 0.059,0.12122 0.0892,0.1889 0.0307,0.0693 0.059,0.14115 0.0898,0.21932 0.0303,0.0756 0.061,0.15741 0.0898,0.24347 0.0303,0.0861 0.061,0.1763 0.0894,0.26865 0.0307,0.0944 0.059,0.19048 0.0898,0.29331 0.0303,0.10025 0.061,0.20464 0.0892,0.31116 0.0307,0.10709 0.061,0.21775 0.0898,0.33005 0.0303,0.11497 0.061,0.22981 0.0898,0.3484 0.0303,0.11706 0.061,0.23822 0.0892,0.361 0.0307,0.12063 0.061,0.24609 0.0898,0.37098 0.0303,0.12702 0.061,0.25396 0.0892,0.38145 0.0307,0.12911 0.061,0.25817 0.0898,0.38935 0.0303,0.12911 0.061,0.26025 0.0898,0.39353 0.0303,0.13119 0.061,0.26236 0.0893,0.39563 0.0307,0.13119 0.061,0.26236 0.0898,0.39564 0.0303,0.13119 0.061,0.26236 0.0892,0.39353 0.0307,0.13119 0.061,0.26236 0.0917,0.39143 0.0284,0.12911 0.0591,0.25817 0.0892,0.38514 0.0288,0.12703 0.0591,0.25188 0.0898,0.37728 0.0288,0.12494 0.0591,0.24766 0.0898,0.37096 0.0284,0.12063 0.0591,0.24189 0.0892,0.36048 0.0288,0.11706 0.0591,0.23403 0.0898,0.34842 0.0284,0.11497 0.0591,0.22772 0.0892,0.33844 0.0288,0.10858 0.0591,0.21723 0.0898,0.32374 0.0288,0.10649 0.059,0.20884 0.0898,0.31168 0.0284,0.10025 0.0591,0.20097 0.0892,0.29698 0.0288,0.0965 0.059,0.19048 0.0898,0.28283 0.0284,0.0903 0.0591,0.1805 0.0892,0.26655 0.0288,0.0882 0.059,0.1721 0.0898,0.25397 0.0288,0.0824 0.0591,0.16214 0.0898,0.23822 0.0284,0.0776 0.0591,0.15163 0.0893,0.22509 0.0307,0.0718 0.0591,0.1416 0.0898,0.20937 0.0284,0.0677 0.0591,0.13118 0.0892,0.19466 0.0288,0.0614 0.0591,0.12271 0.0898,0.1805 0.0303,0.0593 0.0591,0.11438 0.0892,0.16791 0.0307,0.0529 0.0595,0.10649 0.0898,0.15584 0.0307,0.0488 0.0591,0.0961 0.0898,0.14116 0.0303,0.0473 0.0591,0.0903 0.0892,0.13118 0.0307,0.0409 0.0591,0.0824 0.0898,0.11914 0.0303,0.0388 0.0591,0.0756 0.0892,0.11066 0.0307,0.0347 0.0595,0.0677 0.0898,0.0982 0.0307,0.0309 0.0591,0.0614 0.0898,0.0903 0.0303,0.0289 0.059,0.0556 0.0892,0.0797 0.0307,0.0268 0.059,0.0515 0.0898,0.0739 0.0303,0.0226 0.0591,0.0451 0.0892,0.0656 0.0307,0.0205 0.061,0.0409 0.0898,0.0593 0.0307,0.0189 0.061,0.0351 0.0898,0.0515 0.0303,0.0162 0.061,0.033 0.0892,0.0473 0.0307,0.0149 0.061,0.0289 0.0898,0.0409 0.0303,0.0119 0.061,0.0247 0.0892,0.0367 0.0307,0.0104 0.061,0.0226 0.0898,0.033 0.0303,0.0104 0.061,0.0183 0.0898,0.0288 0.0303,0.007 0.061,0.0162 0.0892,0.0241 0.0307,0.006 0.061,0.0149 0.0898,0.0205 0.0303,0.006 0.061,0.0149 0.0892,0.021 0.0307,0.003 0.061,0.0104 0.0898,0.0162 0.0303,0.004 0.061,0.007 0.0898,0.0149 0.0303,0.004 0.061,0.009 0.0892,0.0119 0.0307,0.001 0.061,0.006 0.0898,0.0104 0.0303,0.004 0.061,0.006 0.0913,0.009 0.0288,0.004 0.0591,0.006 0.0898,0.007 0.0284,0.004 0.0591,0.006 0.0892,0.006 0.0288,0.001 0.0595,0.004 0.0898,0.006 0.0288,0.001 0.0591,0.004 0.0898,0.004 0.0284,0.001 0.059,0.003 0.0892,0.003 0.0288,0.001 0.059,0.004 0.0898,0.004 0.0283,0 0.0591,10e-4 0.0893,10e-4 0.0288,0.001 0.0591,0.001 0.0898,0.004 0.0288,0 0.059,0.001 0.0898,0.001 0.0284,0 0.0591,0 0.0892,0 0.0288,10e-4 0.059,10e-4 0.0898,10e-4 0.0283,0 0.0591,0.001 0.0892,0.001 0.0288,0 0.0591,0 0.0898,0 0.0288,0 0.0591,0 0.0898,0.001 0.0284,0 0.0591,0 0.0892,0 0.0288,0 0.0591,0 0.0898,0 0.0284,0 0.0591,0 0.0893,0 0.0307,0 0.0591,0 0.0898,0 0.0303,0 0.0591,0 0.0898,0 0.0303,0 0.0591,0.001 0.0892,0.001 0.0307,0 0.0591,0 0.0898,0 0.0303,0 0.0591,0 0.0892,0 0.0307,0 0.0591,0 0.0898,0 0.0303,0 0.059,0 0.0892,0 0.0307,0 0.0595,0 0.0898,0 0.0307,0 0.059,0 0.0898,0 0.0303,0 0.0591,0 0.0893,0 0.0307,0 0.059,0 0.0898,0 0.0303,0 0.061,0 0.0893,0 0.0307,0 0.061,0 0.0898,0 0.0307,0 0.059,0 0.0898,0 0.0303,0 0.061,0 0.0892,0 0.0307,0 0.061,0 0.0898,0 0.0303,0 0.061,0 0.0892,0"
       style="fill:#c6c6c6;fill-opacity:1;fill-rule:nonzero;stroke:none;stroke-width:0.505982"
       id="path6699-8" />
    <rect
       style="fill:#4550e6;stroke:#000000;stroke-width:0.165;stroke-linecap:round;stroke-linejoin:round;stroke-miterlimit:3.9;stroke-dasharray:none;stroke-opacity:1"
       id="rect881-7-0"
       width="6.0350986"
       height="13.167488"
       x="27.631775"
       y="147.45746"
       ry="0.26846477" />
    <rect
       style="fill:#4550e6;stroke:#000000;stroke-width:0.165;stroke-linecap:round;stroke-linejoin:round;stroke-miterlimit:3.9;stroke-dasharray:none;stroke-opacity:1"
       id="rect881-7-7-3"
       width="6.0350986"
       height="13.167488"
       x="40.615456"
       y="147.35477"
       ry="0.26846477" />
    <rect
       style="fill:#4550e6;stroke:#000000;stroke-width:0.127885;stroke-linecap:round;stroke-linejoin:round;stroke-miterlimit:3.9;stroke-dasharray:none;stroke-opacity:1"
       id="rect881-92-2-8"
       width="3.6151919"
       height="13.204603"
       x="14.519732"
       y="147.4597"
       ry="0.26922148" />
    <rect
       style="fill:#4550e6;stroke:#000000;stroke-width:0.165;stroke-linecap:round;stroke-linejoin:round;stroke-miterlimit:3.9;stroke-dasharray:none;stroke-opacity:1"
       id="rect881-9-0-7"
       width="6.0350986"
       height="13.167488"
       x="84.069618"
       y="147.45746"
       ry="0.26846477" />
    <rect
       style="fill:#4550e6;stroke:#000000;stroke-width:0.165;stroke-linecap:round;stroke-linejoin:round;stroke-miterlimit:3.9;stroke-dasharray:none;stroke-opacity:1"
       id="rect881-9-0-7-6"
       width="6.0350986"
       height="13.167488"
       x="97.47361"
       y="147.43274"
       ry="0.26846477" />
    <text
       xml:space="preserve"
       style="font-style:normal;font-weight:normal;font-size:7.12244px;line-height:1.25;font-family:sans-serif;fill:#000000;fill-opacity:1;stroke:none;stroke-width:0.178061"
       x="20.166349"
       y="155.01213"
       id="text2722-4-5"><tspan
         sodipodi:role="line"
         id="tspan2720-2-5"
         style="font-style:italic;font-variant:normal;font-weight:normal;font-stretch:normal;font-family:Cambria;-inkscape-font-specification:Cambria;stroke-width:0.178061"
         x="20.166349"
         y="155.01213">τ<tspan
   style="font-style:italic;font-size:65%;baseline-shift:sub"
   id="tspan9329-8">1</tspan></tspan></text>
    <text
       xml:space="preserve"
       style="font-style:normal;font-weight:normal;font-size:7.12244px;line-height:1.25;font-family:sans-serif;fill:#000000;fill-opacity:1;stroke:none;stroke-width:0.178061"
       x="49.478065"
       y="155.42082"
       id="text2722-4-3-7"><tspan
         sodipodi:role="line"
         id="tspan2720-2-8-6"
         style="font-style:italic;font-variant:normal;font-weight:normal;font-stretch:normal;font-family:Cambria;-inkscape-font-specification:Cambria;stroke-width:0.178061"
         x="49.478065"
         y="155.42082">τ<tspan
   style="font-style:italic;font-size:65%;baseline-shift:sub"
   id="tspan15048-2">1</tspan> + τ<tspan
   style="font-style:italic;font-size:65%;baseline-shift:sub"
   id="tspan14122-4">2</tspan> -t<tspan
   style="font-size:65%;baseline-shift:sub"
   id="tspan27947">2</tspan>-t</tspan></text>
    <text
       xml:space="preserve"
       style="font-style:normal;font-weight:normal;font-size:7.12244px;line-height:1.25;font-family:sans-serif;fill:#000000;fill-opacity:1;stroke:none;stroke-width:0.178061"
       x="35.826851"
       y="156.12605"
       id="text2722-8-1-6"><tspan
         sodipodi:role="line"
         id="tspan2720-6-2-0"
         style="font-style:italic;font-variant:normal;font-weight:normal;font-stretch:normal;font-family:Cambria;-inkscape-font-specification:Cambria;stroke-width:0.178061"
         x="35.826851"
         y="156.12605">t</tspan></text>
    <text
       xml:space="preserve"
       style="font-style:normal;font-weight:normal;font-size:7.12244px;line-height:1.25;font-family:sans-serif;fill:#000000;fill-opacity:1;stroke:none;stroke-width:0.178061"
       x="105.47504"
       y="155.01213"
       id="text2722-0-1-2"><tspan
         sodipodi:role="line"
         id="tspan2720-5-9-6"
         style="font-style:italic;font-variant:normal;font-weight:normal;font-stretch:normal;font-family:Cambria;-inkscape-font-specification:Cambria;stroke-width:0.178061"
         x="105.47504"
         y="155.01213">τ<tspan
   style="font-style:italic;font-size:65%;baseline-shift:sub"
   id="tspan12985-9">2</tspan></tspan></text>
    <text
       xml:space="preserve"
       style="font-style:normal;font-weight:normal;font-size:7.12244px;line-height:1.25;font-family:sans-serif;fill:#000000;fill-opacity:1;stroke:none;stroke-width:0.178061"
       x="91.350517"
       y="155.42082"
       id="text2722-0-1-2-1"><tspan
         sodipodi:role="line"
         id="tspan2720-5-9-6-8"
         style="font-style:italic;font-variant:normal;font-weight:normal;font-stretch:normal;font-family:Cambria;-inkscape-font-specification:Cambria;stroke-width:0.178061"
         x="91.350517"
         y="155.42082">t<tspan
   style="font-style:italic;font-size:65%;baseline-shift:sub"
   id="tspan12985-9-1">2</tspan></tspan></text>
    <path
       d="m 106.59814,160.45709 c 0.0284,0 0.0591,0 0.0892,0 0.0288,0 0.0591,0 0.0898,0 0.0284,0 0.0591,0 0.0892,0 0.0288,0 0.0595,0 0.0898,0 0.0288,0 0.0591,0 0.0898,0 0.0284,0 0.0591,0 0.0892,0 0.0288,0 0.0591,0 0.0898,0 0.0303,0 0.0591,0 0.0892,0 0.0307,0 0.0591,0 0.0898,0 0.0303,0 0.059,0 0.0898,0 0.0303,0 0.059,0 0.0892,0 0.0307,0 0.0591,0 0.0898,0 0.0303,0 0.0591,0 0.0892,0 0.0307,0 0.059,0 0.0898,0 0.0303,0 0.0591,-0.001 0.0898,-0.001 0.0303,0 0.0591,0 0.0894,0 0.0307,0 0.0591,0 0.0898,0 0.0303,0 0.0591,0 0.0892,0 0.0307,0 0.0591,0 0.0898,0 0.0303,0 0.0591,0 0.0898,0 0.0303,-10e-4 0.0591,-10e-4 0.0892,-10e-4 0.0307,0 0.061,0 0.0898,0 0.0303,-0.001 0.0591,-0.001 0.0892,-0.001 0.0307,0 0.061,0 0.0898,-0.001 0.0303,0 0.061,0 0.0892,0 0.0307,-0.001 0.061,-0.001 0.0898,-0.001 0.0307,-0.001 0.061,-0.001 0.0898,-0.004 0.0303,0 0.061,0 0.0892,-0.001 0.0307,0 0.061,-0.001 0.0898,-0.004 0.0303,0 0.061,-0.001 0.0892,-0.003 0.0307,0 0.061,-0.001 0.0898,-0.004 0.0307,-0.001 0.061,-0.004 0.0898,-0.006 0.0303,0 0.061,-0.004 0.0892,-0.006 0.0307,-0.001 0.061,-0.003 0.0898,-0.007 0.0303,-0.001 0.061,-0.004 0.0892,-0.009 0.0307,-0.004 0.061,-0.006 0.0917,-0.0104 0.0288,-0.004 0.0591,-0.0104 0.0898,-0.0119 0.0284,-0.006 0.0591,-0.0104 0.0893,-0.0149 0.0288,-0.006 0.059,-0.0119 0.0898,-0.0183 0.0284,-0.004 0.0591,-0.0104 0.0892,-0.0189 0.0288,-0.006 0.0591,-0.0149 0.0898,-0.0205 0.0283,-0.007 0.0591,-0.0162 0.0893,-0.0262 0.0288,-0.009 0.0595,-0.0168 0.0898,-0.0268 0.0288,-0.0104 0.0591,-0.0226 0.0898,-0.033 0.0284,-0.0119 0.0591,-0.0247 0.0892,-0.0367 0.0288,-0.0119 0.0591,-0.0268 0.0898,-0.0409 0.0284,-0.0149 0.0591,-0.0309 0.0892,-0.0473 0.0288,-0.0162 0.0595,-0.0326 0.0898,-0.0515 0.0288,-0.0183 0.0591,-0.0388 0.0898,-0.0593 0.0284,-0.0205 0.0591,-0.043 0.0892,-0.0656 0.0307,-0.0226 0.0591,-0.0473 0.0898,-0.0739 0.0303,-0.0241 0.059,-0.0509 0.0893,-0.0797 0.0307,-0.0289 0.0595,-0.0593 0.0898,-0.0903 0.0307,-0.0305 0.0591,-0.0635 0.0898,-0.0982 0.0303,-0.0351 0.059,-0.0718 0.0892,-0.11066 0.0307,-0.0367 0.059,-0.0782 0.0898,-0.11914 0.0303,-0.0409 0.059,-0.0861 0.0892,-0.13118 0.0307,-0.0451 0.059,-0.0924 0.0898,-0.14116 0.0303,-0.0494 0.0591,-0.10292 0.0898,-0.15584 0.0303,-0.0536 0.0591,-0.10858 0.0892,-0.16791 0.0307,-0.0577 0.0591,-0.11914 0.0898,-0.1805 0.0303,-0.0635 0.0591,-0.1291 0.0893,-0.19466 0.0307,-0.0677 0.0591,-0.13744 0.0898,-0.20937 0.0303,-0.0735 0.0591,-0.14739 0.0898,-0.22509 0.0303,-0.0762 0.061,-0.15585 0.0892,-0.23822 0.0307,-0.0818 0.061,-0.16581 0.0898,-0.25397 0.0303,-0.0861 0.061,-0.1763 0.0892,-0.26655 0.0307,-0.0924 0.061,-0.18627 0.0898,-0.28283 0.0303,-0.0959 0.061,-0.19676 0.0898,-0.29698 0.0303,-0.10278 0.061,-0.20516 0.0892,-0.31168 0.0307,-0.1065 0.061,-0.21513 0.0898,-0.32374 0.0303,-0.11066 0.061,-0.22354 0.0893,-0.33844 0.0307,-0.11438 0.061,-0.23141 0.0898,-0.35051 0.0303,-0.11647 0.061,-0.2377 0.0893,-0.35839 0.0307,-0.1233 0.061,-0.24608 0.0898,-0.37096 0.0307,-0.12539 0.061,-0.2503 0.0898,-0.37728 0.0303,-0.12702 0.061,-0.25605 0.0892,-0.38514 0.0307,-0.1291 0.061,-0.26024 0.0898,-0.39143 0.0303,-0.13118 0.061,-0.26236 0.0913,-0.39353 0.0288,-0.13327 0.0591,-0.26445 0.0898,-0.39564 0.0288,-0.13327 0.0591,-0.26445 0.0898,-0.39563 0.0284,-0.13326 0.0591,-0.26445 0.0892,-0.39353 0.0288,-0.13118 0.0591,-0.26026 0.0898,-0.38935 0.0284,-0.12746 0.059,-0.25447 0.0892,-0.38145 0.0288,-0.12494 0.0591,-0.25029 0.0898,-0.37098 0.0288,-0.12271 0.059,-0.24399 0.0898,-0.361 0.0284,-0.11854 0.0591,-0.2335 0.0892,-0.3484 0.0288,-0.1123 0.059,-0.223 0.0898,-0.33005 0.0284,-0.1065 0.0591,-0.21094 0.0894,-0.31116 0.0288,-0.10278 0.059,-0.19886 0.0898,-0.29331 0.0283,-0.0924 0.0591,-0.1826 0.0892,-0.26865 0.0288,-0.0861 0.0595,-0.16791 0.0898,-0.24347 0.0288,-0.0782 0.0591,-0.15007 0.0898,-0.21932 0.0303,-0.0677 0.0591,-0.13119 0.0892,-0.1889 0.0307,-0.0594 0.0591,-0.11289 0.0898,-0.16162 0.0303,-0.0473 0.0591,-0.0924 0.0892,-0.1291 0.0307,-0.0394 0.0595,-0.0718 0.0898,-0.0986 0.0307,-0.0289 0.0591,-0.0494 0.0898,-0.0656 0.0303,-0.0183 0.0591,-0.0289 0.0894,-0.0346 0.0307,-0.004 0.0591,-0.004 0.0898,0 0.0303,0.006 0.0591,0.0162 0.0892,0.0346 0.0307,0.0162 0.0595,0.0367 0.0898,0.0656 0.0307,0.0268 0.0591,0.0593 0.0898,0.0986 0.0303,0.0367 0.059,0.0818 0.0892,0.1291 0.0307,0.0488 0.0591,0.10233 0.0898,0.16162 0.0303,0.0577 0.059,0.12122 0.0892,0.1889 0.0307,0.0693 0.059,0.14115 0.0898,0.21932 0.0303,0.0756 0.061,0.15741 0.0898,0.24347 0.0303,0.0861 0.061,0.1763 0.0894,0.26865 0.0307,0.0944 0.059,0.19048 0.0898,0.29331 0.0303,0.10025 0.061,0.20464 0.0892,0.31116 0.0307,0.10709 0.061,0.21775 0.0898,0.33005 0.0303,0.11497 0.061,0.22981 0.0898,0.3484 0.0303,0.11706 0.061,0.23822 0.0892,0.361 0.0307,0.12063 0.061,0.24609 0.0898,0.37098 0.0303,0.12702 0.061,0.25396 0.0892,0.38145 0.0307,0.12911 0.061,0.25817 0.0898,0.38935 0.0303,0.12911 0.061,0.26025 0.0898,0.39353 0.0303,0.13119 0.061,0.26236 0.0893,0.39563 0.0307,0.13119 0.061,0.26236 0.0898,0.39564 0.0303,0.13119 0.061,0.26236 0.0892,0.39353 0.0307,0.13119 0.061,0.26236 0.0917,0.39143 0.0284,0.12911 0.0591,0.25817 0.0892,0.38514 0.0288,0.12703 0.0591,0.25188 0.0898,0.37728 0.0288,0.12494 0.0591,0.24766 0.0898,0.37096 0.0284,0.12063 0.0591,0.24189 0.0892,0.36048 0.0288,0.11706 0.0591,0.23403 0.0898,0.34842 0.0284,0.11497 0.0591,0.22772 0.0892,0.33844 0.0288,0.10858 0.0591,0.21723 0.0898,0.32374 0.0288,0.10649 0.059,0.20884 0.0898,0.31168 0.0284,0.10025 0.0591,0.20097 0.0892,0.29698 0.0288,0.0965 0.059,0.19048 0.0898,0.28283 0.0284,0.0903 0.0591,0.1805 0.0892,0.26655 0.0288,0.0882 0.059,0.1721 0.0898,0.25397 0.0288,0.0824 0.0591,0.16214 0.0898,0.23822 0.0284,0.0776 0.0591,0.15163 0.0893,0.22509 0.0307,0.0718 0.0591,0.1416 0.0898,0.20937 0.0284,0.0677 0.0591,0.13118 0.0892,0.19466 0.0288,0.0614 0.0591,0.12271 0.0898,0.1805 0.0303,0.0593 0.0591,0.11438 0.0892,0.16791 0.0307,0.0529 0.0595,0.10649 0.0898,0.15584 0.0307,0.0488 0.0591,0.0961 0.0898,0.14116 0.0303,0.0473 0.0591,0.0903 0.0892,0.13118 0.0307,0.0409 0.0591,0.0824 0.0898,0.11914 0.0303,0.0388 0.0591,0.0756 0.0892,0.11066 0.0307,0.0347 0.0595,0.0677 0.0898,0.0982 0.0307,0.0309 0.0591,0.0614 0.0898,0.0903 0.0303,0.0289 0.059,0.0556 0.0892,0.0797 0.0307,0.0268 0.059,0.0515 0.0898,0.0739 0.0303,0.0226 0.0591,0.0451 0.0892,0.0656 0.0307,0.0205 0.061,0.0409 0.0898,0.0593 0.0307,0.0189 0.061,0.0351 0.0898,0.0515 0.0303,0.0162 0.061,0.033 0.0892,0.0473 0.0307,0.0149 0.061,0.0289 0.0898,0.0409 0.0303,0.0119 0.061,0.0247 0.0892,0.0367 0.0307,0.0104 0.061,0.0226 0.0898,0.033 0.0303,0.0104 0.061,0.0183 0.0898,0.0288 0.0303,0.007 0.061,0.0162 0.0892,0.0241 0.0307,0.006 0.061,0.0149 0.0898,0.0205 0.0303,0.006 0.061,0.0149 0.0892,0.021 0.0307,0.003 0.061,0.0104 0.0898,0.0162 0.0303,0.004 0.061,0.007 0.0898,0.0149 0.0303,0.004 0.061,0.009 0.0892,0.0119 0.0307,0.001 0.061,0.006 0.0898,0.0104 0.0303,0.004 0.061,0.006 0.0913,0.009 0.0288,0.004 0.0591,0.006 0.0898,0.007 0.0284,0.004 0.0591,0.006 0.0892,0.006 0.0288,0.001 0.0595,0.004 0.0898,0.006 0.0288,0.001 0.0591,0.004 0.0898,0.004 0.0284,0.001 0.059,0.003 0.0892,0.003 0.0288,0.001 0.059,0.004 0.0898,0.004 0.0283,0 0.0591,0.001 0.0893,0.001 0.0288,0.001 0.0591,0.001 0.0898,0.004 0.0288,0 0.059,0.001 0.0898,0.001 0.0284,0 0.0591,0 0.0892,0 0.0288,0.001 0.059,0.001 0.0898,0.001 0.0283,0 0.0591,0.001 0.0892,0.001 0.0288,0 0.0591,0 0.0898,0 0.0288,0 0.0591,0 0.0898,0.001 0.0284,0 0.0591,0 0.0892,0 0.0288,0 0.0591,0 0.0898,0 0.0284,0 0.0591,0 0.0893,0 0.0307,0 0.0591,0 0.0898,0 0.0303,0 0.0591,0 0.0898,0 0.0303,0 0.0591,10e-4 0.0892,10e-4 0.0307,0 0.0591,0 0.0898,0 0.0303,0 0.0591,0 0.0892,0 0.0307,0 0.0591,0 0.0898,0 0.0303,0 0.059,0 0.0892,0 0.0307,0 0.0595,0 0.0898,0 0.0307,0 0.059,0 0.0898,0 0.0303,0 0.0591,0 0.0893,0 0.0307,0 0.059,0 0.0898,0 0.0303,0 0.061,0 0.0893,0 0.0307,0 0.061,0 0.0898,0 0.0307,0 0.059,0 0.0898,0 0.0303,0 0.061,0 0.0892,0 0.0307,0 0.061,0 0.0898,0 0.0303,0 0.061,0 0.0892,0"
       style="fill:#c6c6c6;fill-opacity:1;fill-rule:nonzero;stroke:none;stroke-width:0.505982"
       id="path6699-8-9" />
    <path
       style="fill:none;stroke:#000000;stroke-width:0.278474px;stroke-linecap:butt;stroke-linejoin:miter;stroke-opacity:1"
       d="M 11.192338,160.62145 H 129.5045"
       id="path857-8-4" />
    <path
       style="fill:none;stroke:#000000;stroke-width:0.278474px;stroke-linecap:butt;stroke-linejoin:miter;stroke-opacity:1"
       d="M 10.253723,119.97044 H 128.56588"
       id="path857" />
    <path
       style="fill:none;stroke:#000000;stroke-width:0.278474px;stroke-linecap:butt;stroke-linejoin:miter;stroke-opacity:1"
       d="M 10.545754,142.07779 H 128.85791"
       id="path857-8" />
  </g>
</svg>
