<?xml version="1.0" encoding="UTF-8" standalone="no"?>
<svg
   xmlns:dc="http://purl.org/dc/elements/1.1/"
   xmlns:cc="http://creativecommons.org/ns#"
   xmlns:rdf="http://www.w3.org/1999/02/22-rdf-syntax-ns#"
   xmlns:svg="http://www.w3.org/2000/svg"
   xmlns="http://www.w3.org/2000/svg"
   xmlns:sodipodi="http://sodipodi.sourceforge.net/DTD/sodipodi-0.dtd"
   xmlns:inkscape="http://www.inkscape.org/namespaces/inkscape"
   width="1264.3461mm"
   height="242.33344mm"
   viewBox="0 0 1264.3461 242.33344"
   version="1.1"
   id="svg967"
   inkscape:version="1.0.2 (e86c870879, 2021-01-15, custom)"
   sodipodi:docname="logo_docs_paths.svg">
  <defs
     id="defs961" />
  <sodipodi:namedview
     id="base"
     pagecolor="#ffffff"
     bordercolor="#666666"
     borderopacity="1.0"
     inkscape:pageopacity="0.0"
     inkscape:pageshadow="2"
     inkscape:zoom="0.12374369"
     inkscape:cx="3854.7868"
     inkscape:cy="1786.0316"
     inkscape:document-units="mm"
     inkscape:current-layer="layer1"
     inkscape:document-rotation="0"
     showgrid="false"
     inkscape:window-width="1920"
     inkscape:window-height="1177"
     inkscape:window-x="-8"
     inkscape:window-y="224"
     inkscape:window-maximized="1" />
  <metadata
     id="metadata964">
    <rdf:RDF>
      <cc:Work
         rdf:about="">
        <dc:format>image/svg+xml</dc:format>
        <dc:type
           rdf:resource="http://purl.org/dc/dcmitype/StillImage" />
        <dc:title></dc:title>
      </cc:Work>
    </rdf:RDF>
  </metadata>
  <g
     inkscape:label="Layer 1"
     inkscape:groupmode="layer"
     id="layer1"
     transform="translate(563.38135,47.839318)">
    <path
       style="color:#000000;font-style:normal;font-variant:normal;font-weight:normal;font-stretch:normal;font-size:medium;line-height:normal;font-family:sans-serif;font-variant-ligatures:normal;font-variant-position:normal;font-variant-caps:normal;font-variant-numeric:normal;font-variant-alternates:normal;font-variant-east-asian:normal;font-feature-settings:normal;font-variation-settings:normal;text-indent:0;text-align:start;text-decoration:none;text-decoration-line:none;text-decoration-style:solid;text-decoration-color:#000000;letter-spacing:normal;word-spacing:normal;text-transform:none;writing-mode:lr-tb;direction:ltr;text-orientation:mixed;dominant-baseline:auto;baseline-shift:baseline;text-anchor:start;white-space:normal;shape-padding:0;shape-margin:0;inline-size:0;clip-rule:nonzero;display:inline;overflow:visible;visibility:visible;isolation:auto;mix-blend-mode:normal;color-interpolation:sRGB;color-interpolation-filters:linearRGB;solid-color:#000000;solid-opacity:1;vector-effect:none;fill:#000000;fill-opacity:1;fill-rule:nonzero;stroke:none;stroke-width:0.334992;stroke-linecap:butt;stroke-linejoin:miter;stroke-miterlimit:4;stroke-dasharray:none;stroke-dashoffset:0;stroke-opacity:1;color-rendering:auto;image-rendering:auto;shape-rendering:auto;text-rendering:auto;enable-background:accumulate;stop-color:#000000"
       d="m -467.8909,194.3557 c -13.7774,-0.8506 -27.0439,-4.3526 -39.1332,-10.33 -44.3044,-21.9064 -66.2318,-72.32 -52.0888,-119.7594 8.6247,-28.9291 30.3479,-52.944 58.2143,-64.3567 l 2.8349,-1.1609 0.125,-3.9154 c 0.378,-11.8573 2.8726,-24.6335 7.0808,-36.252 1.0901,-3.0108 1.5617,-3.8624 2.6851,-4.8518 1.3096,-1.1524 2.5371,-1.5504 4.8302,-1.5661 3.9978,-0.045 22.44,0.4815 23.2909,0.6413 1.6634,0.3135 2.8809,1.0061 4.0353,2.2968 1.0549,1.1794 1.0798,1.2334 1.5153,3.2392 0.5071,2.3351 0.5137,2.2127 -0.424,7.9825 -0.5623,3.4598 -1.7721,9.3364 -1.9958,9.6983 -0.045,0.069 -0.5344,2.9583 -1.0894,6.4158 -0.7237,4.5095 -1.0093,6.7908 -1.0093,8.0698 l -2e-4,1.7832 h 0.686 0.6854 l 1.4051,-2.8721 c 3.0834,-6.2999 7.5473,-12.9206 12.2436,-18.1585 1.1477,-1.2803 1.6925,-1.7307 2.6736,-2.2124 l 1.2321,-0.6044 3.2917,0.045 c 2.5975,0.045 4.1214,0.1435 7.2236,0.5852 2.1622,0.3087 5.7421,0.732 7.9548,0.9418 5.4465,0.5163 6.6236,0.7681 8.1251,1.7394 2.1823,1.4111 3.2829,3.4023 3.4404,6.2249 0.07,1.3008 0,1.9743 -0.2903,3.1623 -0.6181,2.4437 -1.7141,4.9149 -3.1765,7.1633 -1.582,2.4312 -3.3313,5.5581 -4.3817,7.8312 -0.9523,2.0595 -2.2099,5.1667 -2.1259,5.2509 0.045,0.045 1.5027,0.7977 3.2597,1.6924 9.6659,4.9237 17.5661,10.5725 25.1152,17.957 11.0995,10.857 19.1286,23.2718 24.4386,37.7858 1.0008,2.7365 2.7325,8.4334 3.28,10.7928 l 0.218,0.9405 1.4033,0.5068 c 3.7006,1.3358 5.8196,2.3853 8.0915,4.0067 5.0947,3.636 7.0737,5.691 8.8105,9.1491 1.2345,2.4576 1.6562,4.2019 2.7843,11.5204 0.9876,6.4081 1.8429,11.2071 2.7696,15.5441 0.8176,3.8276 0.8675,5.4698 0.2206,7.2255 -1.4392,3.8987 -5.1845,6.8423 -12.008,9.4366 -3.7338,1.4193 -9.7995,2.967 -15.0242,3.8333 -1.0556,0.1754 -1.986,0.3733 -2.067,0.4472 -0.077,0.069 -0.6695,1.289 -1.3079,2.7094 -7.8397,17.4382 -20.6403,32.4589 -36.5848,42.9296 -14.0131,9.2024 -29.784,14.711 -46.5353,16.2545 -3.7422,0.3457 -11.3103,0.4874 -14.7208,0.2765 z m 12.6493,-11.1995 c -0.061,-0.528 -0.1648,-3.511 -0.2313,-6.629 -0.3086,-14.4255 1.4882,-28.0937 4.802,-36.5497 2.2901,-5.8453 5.4576,-10.3983 8.143,-11.7057 2.2598,-1.1 13.8368,-2.5719 31.7818,-4.0417 18.4486,-1.5108 21.6089,-1.7842 27.6185,-2.3875 3.473,-0.3504 6.5999,-0.7192 6.949,-0.8226 0.3505,-0.1011 1.046,-0.2313 1.5491,-0.2811 2.1994,-0.2206 3.8503,-0.5158 6.6745,-1.1914 4.4783,-1.0705 10.4808,-2.7439 10.7549,-2.9987 0.3459,-0.3183 -0.4424,-0.5866 -2.1601,-0.7336 -0.7548,-0.064 -3.3487,-0.4791 -5.7655,-0.9215 -2.4164,-0.4427 -5.1731,-0.9285 -6.1254,-1.0811 -0.953,-0.1516 -2.969,-0.4776 -4.4803,-0.723 -3.6355,-0.59 -13.7679,-1.779 -21.9396,-2.5743 -10.1516,-0.9878 -16.9914,-1.7447 -27.3384,-3.0261 -13.721,-1.6987 -15.5302,-1.8753 -19.3837,-1.896 -4.2526,-0.045 -4.7295,0.088 -6.9923,1.5881 -1.6384,1.088 -4.6418,4.1636 -5.841,5.9812 -2.0119,3.0505 -4.5988,8.4321 -6.3718,13.2579 -2.8458,7.7461 -6.6173,21.7379 -9.0457,33.5555 -1.4889,7.2471 -3.2014,18.7943 -3.202,21.5893 v 1.3821 l 4.5257,0.4975 c 4.9385,0.5426 5.5931,0.5777 11.9115,0.6325 l 4.2767,0.045 -0.1111,-0.9601 z m -27.9203,-7.645 c 1.8948,-14.258 3.3931,-22.5579 5.7932,-32.0825 3.8485,-15.2768 8.7495,-27.8605 14.416,-37.0163 3.6078,-5.8301 8.8928,-8.5169 17.8287,-9.0631 3.2799,-0.2021 6.6897,0.1329 20.5722,2.0096 7.7193,1.0436 14.8913,1.9181 22.4926,2.7416 8.1181,0.8801 28.6573,3.3055 31.7273,3.7466 5.9993,0.8631 14.5222,1.8445 15.5785,1.7947 1.0229,-0.051 1.1511,-0.096 1.1302,-0.4195 -0.045,-0.6886 -1.1853,-8.7754 -1.5479,-10.9716 -1.1337,-6.854 -2.6357,-9.477 -6.5129,-11.3746 -0.9865,-0.4827 -3.6442,-1.4901 -5.9064,-2.2393 -2.2623,-0.7496 -4.6071,-1.5456 -5.2103,-1.7698 -2.1986,-0.816 -5.6744,-1.7833 -16.0812,-4.4752 -18.5085,-4.7864 -22.4074,-5.9755 -29.4526,-8.9814 -5.0966,-2.1741 -16.8482,-8.3158 -18.3599,-9.5945 l -0.6219,-0.5265 -0.1807,-4.109 c -0.2261,-5.1133 0.1197,-24.23 0.5028,-28.2106 0.5011,-5.1822 1.9059,-13.9958 2.3965,-15.0317 0.1435,-0.3044 0.4697,-1.4127 0.7267,-2.4688 1.5295,-6.2925 3.6114,-11.849 7.8311,-20.9006 1.0686,-2.2928 1.9431,-4.2773 1.9431,-4.4111 0,-0.2632 -5e-4,-0.2632 -4.4802,-0.934 -6.1628,-0.9237 -7.0471,-1.0077 -7.6017,-0.7206 -1.2077,0.6249 -6.5118,8.5749 -8.9081,13.3521 -1.5568,3.1029 -4.5783,10.9075 -5.2366,13.5257 -1.0811,4.298 -2.0202,9.7171 -2.3136,13.3528 -0.2812,3.4616 -0.1197,12.4252 0.272,15.0799 0.3781,2.582 0.3643,3.5304 -0.061,4.3623 -0.461,0.9006 -0.6789,1.066 -1.7155,1.2983 -1.1365,0.2527 -1.7279,0 -3.2024,-1.3618 -2.6249,-2.4299 -4.2637,-5.2882 -7.4457,-12.9849 -2.3623,-5.7139 -4.0228,-10.2032 -4.5655,-12.3433 -0.4333,-1.7118 -1.7564,-8.8689 -1.8074,-9.7836 -0.045,-0.5363 0.234,-9.4919 0.447,-15.0864 0.295,-7.7887 0.6261,-10.6544 2.1948,-18.9583 0.4974,-2.6323 0.9046,-4.9905 0.9046,-5.2404 0,-0.4055 -0.095,-0.4661 -0.8685,-0.565 -1.3485,-0.1755 -7.06,-0.4661 -9.1393,-0.4691 -2.1949,0 -2.0731,-0.101 -2.9556,2.4218 -2.368,6.7748 -3.7883,13.2289 -4.6986,21.3483 -0.3687,3.3064 -0.5338,12.3433 -0.2858,15.9092 0.2022,2.8896 1.1485,9.414 1.9676,13.5323 1.9947,10.0285 5.7849,20.9323 10.4867,30.1723 4.4563,8.7571 4.1239,8.0038 4.1228,9.3444 -3e-4,1.6052 -0.6998,2.9764 -3.4888,6.8392 -1.1624,1.6094 -2.6141,3.6668 -3.2262,4.5719 -3.0151,4.4557 -6.3246,7.3555 -9.5592,8.3744 -1.0635,0.3366 -1.6969,0.4009 -3.7489,0.3965 -2.3502,0 -2.5614,-0.045 -4.413,-0.6733 -3.2529,-1.1133 -5.7307,-2.4401 -11.4561,-6.1338 -1.6376,-1.0561 -3.0175,-1.8803 -3.0661,-1.8314 -0.051,0.051 0.1753,0.903 0.5001,1.8987 0.7053,2.1696 2.7586,6.2625 6.5455,13.0492 3.9974,7.1633 4.7744,8.9926 5.1214,12.0569 0.4961,4.3798 -0.9982,8.9432 -4.7379,14.4662 -2.8851,4.2611 -3.2571,4.8434 -4.678,7.3146 -5.8815,10.2327 -13.1609,26.5294 -17.2191,38.5523 l -0.8839,2.619 1.1579,1.0941 c 1.651,1.5586 5.2686,4.5477 7.6194,6.2951 8.075,6.002 16.4504,10.2713 26.6987,13.61 3.8573,1.2569 3.8237,1.2463 3.881,1.2029 0.045,-0.045 0.3732,-2.536 0.7803,-5.5982 z m 44.4745,2.3092 c 10.7814,-3.0667 20.4986,-7.8695 29.2067,-14.4358 7.7755,-5.8623 14.7248,-13.214 20.0745,-21.2362 2.2512,-3.3757 4.7753,-7.6944 4.5944,-7.8617 -0.045,-0.045 -1.1943,0.061 -2.5835,0.1994 -1.389,0.1383 -7.1904,0.585 -12.892,0.9915 -20.8031,1.4837 -27.3742,2.3222 -36.0784,4.6041 l -2.122,0.5565 -0.2951,0.9386 c -0.9392,2.9976 -2.0945,8.2556 -2.678,12.1888 -0.8132,5.4808 -0.9865,8.2039 -0.9959,15.6312 0,7.7533 0.088,9.2346 0.6018,9.2346 0.1755,0 1.6001,-0.364 3.1667,-0.8099 z m -89.105,-41.8892 c 3.7812,-9.0604 8.4436,-18.2447 11.0463,-21.7613 5.0529,-6.8253 7.4465,-11.4033 8.0075,-15.3146 0.4102,-2.8407 0.3135,-3.1284 -2.8339,-8.6408 -4.8654,-8.5214 -8.3839,-16.5305 -9.3582,-21.3034 -0.378,-1.8583 -0.424,-4.8245 -0.095,-6.2178 1.1239,-4.7543 5.4435,-7.6432 10.436,-6.9787 2.8121,0.3733 5.9405,1.5863 12.3441,4.7814 7.3544,3.6692 8.2094,3.9118 10.2659,2.9165 1.0423,-0.5044 3.5732,-2.8952 4.9024,-4.6304 l 1.0258,-1.3393 -2.596,-4.7352 c -3.851,-7.0244 -5.7637,-11.2109 -7.4694,-16.347 -0.7307,-2.2012 -1.8455,-6.5376 -2.1114,-8.2143 -0.074,-0.4427 -0.4868,-2.4122 -0.9244,-4.3723 -0.438,-1.9598 -1.0605,-5.197 -1.383,-7.1938 -0.5607,-3.464 -0.6048,-3.6243 -0.966,-3.5143 -0.7922,0.2447 -7.2363,3.5419 -9.2476,4.7355 -22.3935,13.2875 -37.5549,35.2886 -41.9623,60.8927 -0.9276,5.3893 -1.0931,7.6023 -1.0931,14.6292 0,7.0159 0.1622,9.1486 1.0926,14.6711 2.2341,13.2077 7.3079,25.3713 15.2293,36.5074 l 1.5433,2.1705 1.5015,-3.9987 c 0.8256,-2.2 2.017,-5.234 2.6468,-6.7424 z m 148.683,-70.315 c 0,-0.3411 -1.6569,-4.761 -2.5932,-6.9195 -4.3465,-10.0202 -10.1851,-18.7195 -17.7964,-26.5172 -5.3037,-5.4329 -10.6973,-9.7586 -16.9096,-13.5626 -2.5008,-1.5305 -7.2893,-4.1141 -7.4002,-3.9923 -0.25,0.2766 -1.3375,8.2074 -1.7857,13.05 -0.2633,2.8453 -0.3319,20.0458 -0.088,21.5201 l 0.1437,0.8567 2.0037,1.2026 c 5.1697,3.1046 11.3215,5.7472 18.4773,7.937 4.2407,1.2978 7.3906,2.1317 16.2564,4.3045 4.2746,1.0473 8.0601,1.9875 8.4118,2.0888 0.8546,0.2499 1.2803,0.2579 1.2803,0.045 z"
       id="path1892-8-4-0-02-8-8-8" />
    <path
       d="m -195.5986,72.7233 q 0,26.1144 -14.8694,45.1659 -16.1706,20.7243 -41.4486,20.7243 -4.8326,0 -14.5907,-0.3717 -9.6651,-0.3717 -14.4977,-0.3717 -4.3679,0 -13.1966,0.3717 -8.7358,0.3717 -13.1037,0.3717 -2.3234,0 -2.3234,-2.3233 0,-10.1298 0.7435,-30.5753 0.8364,-20.4455 0.8364,-30.6683 0,-10.7803 -0.7435,-32.434 -0.7435,-21.6536 -0.7435,-32.434 0,-1.9516 2.4163,-1.9516 3.4386,0 10.2228,0.093 6.8771,0.093 10.3157,0.093 3.1597,0 9.6651,-0.093 6.5054,-0.093 9.851,-0.093 32.2481,0 48.0469,12.1744 11.338,8.7358 17.5646,23.5123 5.8548,13.7542 5.8548,28.8096 z m -22.7688,0 q 0,-20.0738 -11.4309,-32.7128 -11.8956,-13.1037 -31.7835,-13.1037 -16.4493,0 -13.2895,-0.1859 -10.8733,0.5576 -10.8733,3.9962 0,7.1559 -0.3718,21.4677 -0.2788,14.2189 -0.2788,21.3749 0,7.063 0.2788,21.1889 0.3718,14.126 0.3718,21.189 0,3.5315 11.1521,4.0891 -1.487,-0.093 13.5683,-0.093 10.6875,0 17.007,-2.2304 7.8064,-2.7881 14.033,-10.3157 11.6168,-14.126 11.6168,-34.6644 z"
       style="font-style:normal;font-weight:normal;font-size:190.329px;line-height:1.25;font-family:sans-serif;letter-spacing:0px;word-spacing:0px;fill:#000000;fill-opacity:1;stroke:none;stroke-width:2.09733"
       id="path882" />
    <path
       d="m -102.014,88.7079 q 0,6.8772 -5.9477,9.2005 -3.9962,1.4869 -57.5262,5.4831 1.2081,8.1782 9.0146,13.9401 7.4347,5.4831 15.9846,5.4831 14.6836,0 26.9509,-9.4792 1.487,-1.2082 2.9739,-2.4163 0.7435,0 0.9294,0.1858 0.2788,0.1859 3.5314,6.5054 3.2527,6.2266 3.2527,6.6913 0,0.5576 -1.4869,2.1375 -13.6613,14.4977 -35.0362,14.4977 -21.5607,0 -34.3856,-12.8249 -12.8249,-12.9179 -12.8249,-34.3856 0,-19.1445 12.2673,-33.3634 12.9179,-14.7765 31.6906,-14.7765 17.4716,0 29.1813,12.8249 11.4308,12.4532 11.4308,30.2965 z m -22.1183,-5.669 q 0,-7.7135 -6.1336,-13.6613 -6.0407,-5.9477 -13.6613,-5.9477 -8.55,0 -15.2412,6.8771 -6.5983,6.8771 -6.5983,15.427 0,1.9517 3.3456,1.9517 13.7542,0 32.8987,-2.7881 5.3901,-0.7434 5.3901,-1.8587 z"
       style="font-style:normal;font-weight:normal;font-size:190.329px;line-height:1.25;font-family:sans-serif;letter-spacing:0px;word-spacing:0px;fill:#000000;fill-opacity:1;stroke:none;stroke-width:2.09733"
       id="path884" />
    <path
       d="m -10.288,88.7079 q 0,6.8772 -5.9478,9.2005 -3.9962,1.4869 -57.5262,5.4831 1.2081,8.1782 9.0146,13.9401 7.4347,5.4831 15.9847,5.4831 14.6836,0 26.9509,-9.4792 1.4869,-1.2082 2.9738,-2.4163 0.7435,0 0.9294,0.1858 0.2788,0.1859 3.5315,6.5054 3.2527,6.2266 3.2527,6.6913 0,0.5576 -1.487,2.1375 -13.6613,14.4977 -35.0361,14.4977 -21.5607,0 -34.3856,-12.8249 -12.8249,-12.9179 -12.8249,-34.3856 0,-19.1445 12.2673,-33.3634 12.9178,-14.7765 31.6905,-14.7765 17.4716,0 29.1813,12.8249 11.4309,12.4532 11.4309,30.2965 z m -22.1183,-5.669 q 0,-7.7135 -6.1337,-13.6613 -6.0407,-5.9477 -13.6613,-5.9477 -8.5499,0 -15.2412,6.8771 -6.5983,6.8771 -6.5983,15.427 0,1.9517 3.3456,1.9517 13.7543,0 32.8987,-2.7881 5.3902,-0.7434 5.3902,-1.8587 z"
       style="font-style:normal;font-weight:normal;font-size:190.329px;line-height:1.25;font-family:sans-serif;letter-spacing:0px;word-spacing:0px;fill:#000000;fill-opacity:1;stroke:none;stroke-width:2.09733"
       id="path886" />
    <path
       d="m 55.8811,51.3484 q 0,10.2228 -1.394,18.5868 -0.2789,2.1375 -1.8587,2.1375 -1.9516,0 -5.9478,-0.3717 -3.9032,-0.4647 -5.9478,-0.4647 -11.7097,0 -14.9624,6.5983 -1.9516,3.9962 -1.9516,16.6352 v 10.2228 q 0,5.2043 0.3717,15.7988 0.4647,10.5945 0.4647,15.7988 0,2.5092 -2.1375,2.5092 -2.8809,0 -8.7358,-0.093 -5.8548,-0.093 -8.7358,-0.093 -2.1375,0 -2.1375,-2.3233 0,-7.5277 0.1859,-22.6759 0.2788,-15.1483 0.2788,-22.7689 0,-22.9547 -4.275,-36.8948 -0.1858,-0.7435 -0.1858,-1.1152 0,-1.1152 1.2081,-1.5799 3.4386,-0.3717 9.6652,-1.1152 10.0368,-1.8587 9.2934,-1.8587 1.4869,0 1.9516,5.4831 0.4647,5.4831 1.6728,5.4831 0.1859,0 0.4647,-0.1858 3.8103,-2.4163 7.6206,-4.8326 4.182,-2.5092 8.5499,-3.7174 3.6244,-1.1152 9.2934,-1.1152 7.2489,0 7.2489,1.9516 z"
       style="font-style:normal;font-weight:normal;font-size:190.329px;line-height:1.25;font-family:sans-serif;letter-spacing:0px;word-spacing:0px;fill:#000000;fill-opacity:1;stroke:none;stroke-width:2.09733"
       id="path888" />
    <path
       d="m 153.9265,118.4468 q 0,13.0108 -1.394,18.4939 -0.6505,2.6951 -3.2527,2.6951 -6.8771,0 -20.6314,-0.8364 -13.7542,-0.7435 -20.6313,-0.7435 -6.5054,0 -19.4232,0.2788 -12.9179,0.2788 -19.4233,0.2788 -2.3233,0 -2.3233,-2.3233 0,-10.1298 0.6505,-30.5753 0.7435,-20.4455 0.7435,-30.6683 0,-10.7803 -1.0223,-32.2481 -0.9293,-21.5607 -0.9293,-32.3411 0,-2.0445 2.3233,-2.0445 1.6728,0 5.1114,0.2788 3.4386,0.2788 5.2043,0.2788 1.6728,0 5.2043,-0.2788 3.5315,-0.2788 5.2043,-0.2788 2.2304,0 2.2304,1.7657 0,9.851 -0.7434,29.646 -0.7435,19.795 -0.7435,29.7389 0,4.8326 0,14.6836 -0.093,9.851 -0.093,14.6836 0,20.6313 1.6728,20.6313 34.2927,0 51.7643,-1.6728 0.8364,-0.093 4.2749,-0.6505 2.7881,-0.5576 4.275,-0.5576 1.9516,0 1.9516,1.7657 z"
       style="font-style:normal;font-weight:normal;font-size:190.329px;line-height:1.25;font-family:sans-serif;letter-spacing:0px;word-spacing:0px;fill:#000000;fill-opacity:1;stroke:none;stroke-width:2.09733"
       id="path890" />
    <path
       d="m 254.8529,54.5082 q 0,0.3717 -0.2788,1.6728 -3.6244,21.2819 -3.6244,36.709 0,0.9293 2.3233,41.7274 l 0.093,1.301 q 0.093,2.6951 -2.5093,2.6951 -2.5092,0 -7.7135,0.5576 -5.1114,0.6506 -7.6206,0.6506 -1.7657,0 -2.6951,-6.5054 -0.9293,-6.5054 -1.7657,-6.5054 -0.5576,0 -5.0185,3.6244 -5.4831,4.4609 -10.2227,6.7842 -7.3418,3.7174 -14.6836,3.7174 -18.0292,0 -30.3894,-14.4048 -11.7097,-13.7542 -11.7097,-32.0623 0,-20.6313 11.8026,-34.1068 12.3602,-14.033 32.5269,-14.033 14.2189,0 24.8134,9.851 1.5799,1.8587 4.9255,5.3902 0.2788,0.2788 0.5576,0.2788 0.5576,0 1.5799,-5.8549 1.0223,-5.8548 2.6022,-5.8548 2.5092,0 9.3863,1.394 7.6206,1.6728 7.6206,2.9739 z m -23.6982,38.8464 q 0,-11.4309 -6.7842,-19.6091 -7.1559,-8.8287 -18.308,-8.8287 -11.1521,0 -18.5868,8.7358 -7.1559,8.3641 -7.1559,19.702 0,11.2451 7.1559,19.5162 7.4347,8.6429 18.5868,8.6429 10.8733,0 18.2151,-8.8288 6.8771,-8.2711 6.8771,-19.3303 z"
       style="font-style:normal;font-weight:normal;font-size:190.329px;line-height:1.25;font-family:sans-serif;letter-spacing:0px;word-spacing:0px;fill:#000000;fill-opacity:1;stroke:none;stroke-width:2.09733"
       id="path892" />
    <path
       d="m 362.1918,93.7264 q 0,18.4009 -11.4309,32.0622 -12.1744,14.4977 -30.2965,14.4977 -12.0815,0 -21.2819,-6.1336 -3.7174,-3.1598 -7.4348,-6.2266 -1.0223,0.2788 -1.394,5.5761 -0.2788,5.2972 -1.4869,5.2972 h -19.6091 q -1.1152,0 -1.1152,-1.2081 0,0.093 0.1858,-1.6729 1.487,-14.8694 1.487,-56.8756 0,-17.1928 -1.487,-50.4632 -0.9293,-21.189 -0.9293,-18.5868 0,-2.4163 2.4163,-2.6951 3.3456,-0.093 9.9439,-0.3718 1.3011,-0.093 5.2973,-0.6505 3.3456,-0.5576 5.3901,-0.5576 1.487,0 1.487,2.1375 0,3.1597 -0.4647,9.6651 -0.4646,6.5054 -0.4646,9.7581 0,4.8326 -0.4647,14.5907 -0.3718,9.6651 -0.3718,14.4977 0,3.5315 1.3011,3.5315 0.6506,0 1.394,-1.0223 10.2228,-12.732 27.0439,-12.732 19.2373,0 31.1329,14.4048 11.1521,13.5684 11.1521,33.1775 z M 341.1887,92.89 q 0,-11.0592 -6.9701,-19.5162 -7.4347,-9.0146 -18.308,-9.0146 -11.1521,0 -18.5868,8.8287 -7.156,8.3641 -7.156,19.7021 0,11.5238 7.156,19.8879 7.4347,8.7358 18.7727,8.7358 10.9662,0 18.308,-9.0146 6.7842,-8.3641 6.7842,-19.6091 z"
       style="font-style:normal;font-weight:normal;font-size:190.329px;line-height:1.25;font-family:sans-serif;letter-spacing:0px;word-spacing:0px;fill:#000000;fill-opacity:1;stroke:none;stroke-width:2.09733"
       id="path894" />
    <path
       d="m 482.6666,76.6546 q 0,24.5564 -13.9823,42.4711 -15.2057,19.4878 -38.9756,19.4878 -4.5442,0 -13.7201,-0.3495 -9.0884,-0.3496 -13.6327,-0.3496 -4.1073,0 -12.4092,0.3496 -8.2146,0.3495 -12.3219,0.3495 -2.1847,0 -2.1847,-2.1847 0,-9.5254 0.6991,-28.751 0.7865,-19.2257 0.7865,-28.8385 0,-10.1371 -0.6991,-30.4988 -0.6991,-20.3617 -0.6991,-30.4988 0,-1.8352 2.2721,-1.8352 3.2334,0 9.6128,0.087 6.4668,0.087 9.7002,0.087 2.9712,0 9.0885,-0.087 6.1172,-0.087 9.2632,-0.087 30.324,0 45.1802,11.448 10.6615,8.2146 16.5166,22.1095 5.5055,12.9336 5.5055,27.0906 z m -21.4104,0 q 0,-18.876 -10.7488,-30.761 -11.1859,-12.3218 -29.8871,-12.3218 -15.4679,0 -12.4967,-0.1748 -10.2245,0.5243 -10.2245,3.7577 0,6.729 -0.3496,20.1869 -0.2621,13.3705 -0.2621,20.0995 0,6.6416 0.2621,19.9247 0.3496,13.2832 0.3496,19.9248 0,3.3208 10.4867,3.8451 -1.3982,-0.087 12.7588,-0.087 10.0498,0 15.9922,-2.0973 7.3407,-2.6217 13.1958,-9.7002 10.9236,-13.2832 10.9236,-32.5962 z"
       style="font-style:normal;font-weight:normal;font-size:83.8944px;line-height:1.25;font-family:sans-serif;letter-spacing:0px;word-spacing:0px;fill:#4550e6;fill-opacity:1;stroke:none;stroke-width:2.09733"
       id="path896" />
    <path
       d="m 575.8235,96.055 q 0,18.2643 -11.9723,31.1979 -12.2345,13.3706 -30.3241,13.3706 -18.1769,0 -30.4114,-13.2832 -11.9723,-12.8462 -11.9723,-31.1105 0,-18.2644 11.9723,-31.1106 12.3219,-13.1083 30.4114,-13.1083 18.0022,0 30.2367,13.1083 12.0597,12.7589 12.0597,30.9358 z m -18.4391,0.1748 q 0,-10.6615 -6.5542,-18.177 -6.8164,-7.9524 -17.3031,-7.9524 -10.4867,0 -17.3904,7.865 -6.5542,7.6029 -6.5542,18.2644 0,10.4867 6.6416,18.1769 6.9911,8.1272 17.303,8.1272 10.3993,0 17.3031,-8.1272 6.5542,-7.6902 6.5542,-18.1769 z"
       style="font-style:normal;font-weight:normal;font-size:83.8944px;line-height:1.25;font-family:sans-serif;letter-spacing:0px;word-spacing:0px;fill:#4550e6;fill-opacity:1;stroke:none;stroke-width:2.09733"
       id="path898" />
    <path
       d="m 649.143,59.3516 q 0,1.9225 -2.01,8.5641 -2.0099,6.6416 -2.7964,6.6416 -3.9325,-1.7478 -7.9524,-3.4956 -3.9325,-1.7478 -8.6516,-1.7478 -10.7488,0 -17.9147,7.9524 -7.166,7.9524 -7.166,18.7887 0,10.6615 7.166,18.4391 7.3406,8.0398 17.9147,8.0398 5.8551,0 11.5354,-2.8838 5.6803,-2.8839 4.9812,-2.8839 1.136,0 2.5343,7.3407 1.3108,6.6416 1.3108,9.1759 0,2.7091 -10.2245,5.3307 -8.5642,2.1848 -12.6714,2.1848 -18.0022,0 -30.4115,-13.458 -12.1471,-13.1083 -12.1471,-31.2853 0,-18.5265 11.885,-31.4601 12.2344,-13.2831 30.4988,-13.2831 12.2345,0 22.3716,6.2046 1.7478,1.0487 1.7478,1.8352 z"
       style="font-style:normal;font-weight:normal;font-size:83.8944px;line-height:1.25;font-family:sans-serif;letter-spacing:0px;word-spacing:0px;fill:#4550e6;fill-opacity:1;stroke:none;stroke-width:2.09733"
       id="path900" />
    <path
       d="m 700.9647,111.6977 q 0,13.021 -10.3993,20.886 -9.438,7.1659 -22.9833,7.1659 -5.2434,0 -5.9425,-0.2622 -1.4856,-0.6991 -1.4856,-4.282 0,-1.9226 -0.5243,-5.7677 -0.437,-3.8452 -0.437,-5.6803 0,-1.1361 1.573,-1.4856 1.1361,-0.2622 3.2334,0 2.7091,0.2621 2.6217,0.2621 16.5166,0 16.5166,-10.1371 0,-4.8064 -7.2534,-8.8263 -11.7975,-6.4668 -13.5453,-7.9524 -7.2533,-6.2047 -7.2533,-16.2544 0,-13.1084 9.875,-20.4491 8.9137,-6.5542 22.5464,-6.5542 1.2235,0 1.7478,1.1361 0.6117,1.136 2.1847,7.0785 1.6604,5.9425 1.6604,7.1659 0,0.9613 -1.6604,1.2235 -5.5929,0.7865 -11.2732,1.4856 -6.7289,1.8352 -6.7289,7.3407 0,3.9325 7.0785,7.9524 10.4867,5.8551 13.2831,8.4767 7.1659,6.8164 7.1659,17.4779 z"
       style="font-style:normal;font-weight:normal;font-size:83.8944px;line-height:1.25;font-family:sans-serif;letter-spacing:0px;word-spacing:0px;fill:#4550e6;fill-opacity:1;stroke:none;stroke-width:2.09733"
       id="path902" />
  </g>
</svg>
